<svg version="1.1" xmlns="http://www.w3.org/2000/svg" width="3182" height="446">

<path d="M0 0 C3.69055664 1.79336512 7.33201221 3.63623138 10.9296875 5.609375 C11.61804688 5.98191406 12.30640625 6.35445312 13.015625 6.73828125 C14.69763548 7.64937026 16.37649186 8.56627815 18.0546875 9.484375 C18.0546875 10.144375 18.0546875 10.804375 18.0546875 11.484375 C19.08444702 11.62685669 19.08444702 11.62685669 20.13500977 11.7722168 C23.65741685 12.63139076 26.60927765 14.16051325 29.76953125 15.87890625 C30.41284897 16.22214935 31.05616669 16.56539246 31.71897888 16.91903687 C33.8134843 18.0387016 35.90284524 19.16760934 37.9921875 20.296875 C39.44912142 21.07836594 40.90631762 21.85936809 42.36376953 22.63989258 C52.14888711 27.88743133 61.90372634 33.19092297 71.640625 38.52734375 C77.76157675 41.87810559 83.90802032 45.18109156 90.0546875 48.484375 C98.96292028 53.2729257 107.85277569 58.09327117 116.7265625 62.9453125 C124.90838961 67.41457644 133.11823427 71.83106819 141.33007812 76.24487305 C149.69721001 80.74528074 158.04384047 85.28229685 166.37890625 89.84179688 C167.65701172 90.54079102 167.65701172 90.54079102 168.9609375 91.25390625 C169.70666016 91.66229736 170.45238281 92.07068848 171.22070312 92.49145508 C172.48732209 93.17720313 173.76640989 93.8402362 175.0546875 94.484375 C175.0546875 95.144375 175.0546875 95.804375 175.0546875 96.484375 C176.7046875 96.814375 178.3546875 97.144375 180.0546875 97.484375 C186.9846875 101.114375 193.9146875 104.744375 201.0546875 108.484375 C201.0546875 157.984375 201.0546875 207.484375 201.0546875 258.484375 C175.9880137 272.15710616 175.9880137 272.15710616 166.6171875 276.734375 C158.54682829 280.71639969 150.57164883 284.81732246 142.6875 289.15625 C140.0546875 290.484375 140.0546875 290.484375 138.0546875 290.484375 C138.05992432 291.77722412 138.06516113 293.07007324 138.07055664 294.40209961 C138.07358292 295.26323868 138.07660919 296.12437775 138.07972717 297.01161194 C138.08656907 298.95606258 138.09418922 300.90051062 138.1025238 302.84495544 C138.12125477 308.21527084 138.11251763 313.58354311 138.0546875 318.95361328 C137.87876856 332.29542468 137.87876856 332.29542468 138.95703125 345.57421875 C140.27252776 357.29046804 140.27252776 357.29046804 137.0546875 362.484375 C128.95003985 369.49965075 118.87673122 373.55172743 109.10693359 377.71191406 C103.76218302 380.00632036 98.73195094 382.79976007 93.6796875 385.671875 C91.94183778 386.62815727 90.20224085 387.58127102 88.4609375 388.53125 C87.15576172 389.24571289 87.15576172 389.24571289 85.82421875 389.97460938 C80.62064921 392.81125201 75.3995066 395.61528107 70.1796875 398.421875 C58.80395032 404.53939669 47.44294021 410.68361155 36.08837891 416.84033203 C32.90477532 418.56561664 29.72009061 420.28889213 26.53515625 422.01171875 C24.92374756 422.88364868 24.92374756 422.88364868 23.27978516 423.77319336 C21.23929363 424.87723884 19.19861713 425.98094254 17.15771484 427.08422852 C16.22781738 427.58752686 15.29791992 428.0908252 14.33984375 428.609375 C13.4492627 429.08761719 12.55868164 429.56585938 11.64111328 430.05859375 C9.92224655 431.00612837 8.22190008 431.98809404 6.54248047 433.00390625 C5.76146973 433.47183594 4.98045898 433.93976563 4.17578125 434.421875 C3.49829834 434.84339844 2.82081543 435.26492188 2.12280273 435.69921875 C-0.71075872 436.77497529 -2.05697535 436.40231875 -4.9453125 435.484375 C-7.38128786 434.33521578 -9.73249334 433.15015715 -12.09765625 431.87109375 C-12.78609116 431.50529205 -13.47452606 431.13949036 -14.18382263 430.76260376 C-16.42028044 429.57205417 -18.65160772 428.37223611 -20.8828125 427.171875 C-22.42441068 426.34811853 -23.96624147 425.52479721 -25.50830078 424.7019043 C-29.992559 422.30578378 -34.4697762 419.89673774 -38.9453125 417.484375 C-39.55413269 417.15667114 -40.16295288 416.82896729 -40.79022217 416.49133301 C-44.30398183 414.60001313 -47.81400606 412.70197553 -51.3203125 410.796875 C-52.1362085 410.3536792 -52.95210449 409.9104834 -53.79272461 409.45385742 C-55.30883169 408.62399982 -56.81551063 407.77653793 -58.30937195 406.90727234 C-60.96399418 405.40978928 -60.96399418 405.40978928 -63.99679565 404.26187134 C-67.53976876 402.66447666 -70.12535834 401.17470769 -72.9453125 398.484375 C-74.63292522 393.08594453 -74.34948792 387.84609965 -74.1171875 382.26953125 C-74.09478139 380.68776407 -74.0777114 379.10591312 -74.06573486 377.52403259 C-74.02009714 373.37725389 -73.90242187 369.23558929 -73.76928711 365.09082031 C-73.64611122 360.85487065 -73.5916377 356.61808693 -73.53125 352.38085938 C-73.40287873 344.07969419 -73.19833356 335.78267209 -72.9453125 327.484375 C-69.76226515 328.03470295 -67.09384112 328.72664422 -64.22607422 330.21166992 C-63.53187378 330.56727493 -62.83767334 330.92287994 -62.12243652 331.28926086 C-61.38078247 331.67720322 -60.63912842 332.06514557 -59.875 332.46484375 C-59.08871216 332.8700676 -58.30242432 333.27529144 -57.49230957 333.6927948 C-55.80633693 334.56276968 -54.1218292 335.43558828 -52.43865967 336.31097412 C-49.80851788 337.67800532 -47.17370166 339.03561956 -44.53759766 340.39111328 C-36.50313034 344.52896504 -28.49400569 348.70725958 -20.5390625 352.99609375 C-19.29335302 353.6622796 -18.04742997 354.32806629 -16.80126953 354.9934082 C-14.52813562 356.21192149 -12.26300995 357.44552733 -10.00732422 358.69604492 C-9.00459473 359.23205322 -8.00186523 359.76806152 -6.96875 360.3203125 C-6.11200684 360.79001465 -5.25526367 361.2597168 -4.37255859 361.74365234 C-1.15132527 362.72667607 0.104768 362.00471813 3.0546875 360.484375 C4.18608154 359.95070313 4.18608154 359.95070313 5.34033203 359.40625 C6.11489746 359.01953125 6.88946289 358.6328125 7.6875 358.234375 C8.56591553 357.79617432 9.44433105 357.35797363 10.34936523 356.90649414 C11.28337158 356.43719482 12.21737793 355.96789551 13.1796875 355.484375 C14.1581665 354.99380615 15.13664551 354.5032373 16.14477539 353.99780273 C24.64092279 349.72255732 33.05998977 345.30999103 41.46386719 340.85693359 C46.51083621 338.18316241 51.56176552 335.51712963 56.6171875 332.859375 C57.62386475 332.32578369 58.63054199 331.79219238 59.66772461 331.24243164 C60.60108643 330.75250732 61.53444824 330.26258301 62.49609375 329.7578125 C63.32826416 329.31872559 64.16043457 328.87963867 65.01782227 328.42724609 C67.0546875 327.484375 67.0546875 327.484375 69.0546875 327.484375 C69.0546875 303.394375 69.0546875 279.304375 69.0546875 254.484375 C42.80783957 267.81079854 42.80783957 267.81079854 16.88037109 281.74121094 C14.6114628 283.00103092 12.33629311 284.24770847 10.0546875 285.484375 C8.75797119 286.19062012 8.75797119 286.19062012 7.43505859 286.91113281 C6.56059082 287.37100586 5.68612305 287.83087891 4.78515625 288.3046875 C3.99906982 288.72250488 3.2129834 289.14032227 2.40307617 289.57080078 C-0.88736594 290.85085426 -3.49721932 291.0193848 -6.82861328 289.78857422 C-7.72555908 289.29381592 -7.72555908 289.29381592 -8.640625 288.7890625 C-9.6932251 288.22070679 -9.6932251 288.22070679 -10.76708984 287.64086914 C-11.52715332 287.21797607 -12.2872168 286.79508301 -13.0703125 286.359375 C-14.77274347 285.43751923 -16.47591276 284.51702609 -18.1796875 283.59765625 C-19.10201172 283.0970166 -20.02433594 282.59637695 -20.97460938 282.08056641 C-26.38935321 279.17116509 -31.85850265 276.36659612 -37.3203125 273.546875 C-39.61735997 272.35580132 -41.91423578 271.1643965 -44.2109375 269.97265625 C-48.57128009 267.71171468 -52.93617927 265.45996155 -57.3046875 263.21484375 C-59.22664777 262.22151913 -61.14852743 261.22803853 -63.0703125 260.234375 C-63.95895996 259.78070557 -64.84760742 259.32703613 -65.76318359 258.85961914 C-66.97095459 258.23301392 -66.97095459 258.23301392 -68.203125 257.59375 C-68.9058252 257.23249023 -69.60852539 256.87123047 -70.33251953 256.49902344 C-71.9453125 255.484375 -71.9453125 255.484375 -72.9453125 253.484375 C-73.03811168 251.0429594 -73.07115178 248.63037441 -73.05883789 246.18896484 C-73.05898392 245.43764786 -73.05912994 244.68633087 -73.0592804 243.9122467 C-73.05858246 241.4232395 -73.05079564 238.93430667 -73.04296875 236.4453125 C-73.04110415 234.72181235 -73.03968044 232.99831166 -73.03868103 231.27481079 C-73.03485919 226.73411603 -73.02503172 222.19345315 -73.01397705 217.652771 C-73.00375579 213.02112255 -72.99918187 208.38946897 -72.99414062 203.7578125 C-72.98340917 194.66665264 -72.96633672 185.57551647 -72.9453125 176.484375 C-61.06767126 169.96937497 -49.18626542 163.48207614 -37.1328125 157.296875 C-34.85787597 156.12147485 -32.58313642 154.94569339 -30.30859375 153.76953125 C-27.24305757 152.18659484 -24.17734462 150.60400844 -21.11083984 149.02294922 C-18.67763913 147.76580307 -16.24838446 146.50139046 -13.8203125 145.234375 C-13.12188232 144.87577393 -12.42345215 144.51717285 -11.70385742 144.14770508 C-8.20993053 142.47234659 -8.20993053 142.47234659 -5.9453125 139.484375 C-7.17109009 139.11880493 -7.17109009 139.11880493 -8.42163086 138.74584961 C-12.59163844 137.25299094 -16.39898051 135.33875141 -20.32421875 133.30078125 C-21.12567825 132.88895096 -21.92713776 132.47712067 -22.75288391 132.05281067 C-25.34013895 130.72186825 -27.92410708 129.38469335 -30.5078125 128.046875 C-32.27673733 127.13404838 -34.04578053 126.22145108 -35.81494141 125.30908203 C-39.28608288 123.5178586 -42.75570726 121.72374511 -46.22412109 119.92724609 C-50.19552383 117.87067471 -54.17275512 115.82583673 -58.15234375 113.78515625 C-60.04194764 112.81044034 -61.93130208 111.83524057 -63.8203125 110.859375 C-64.66150635 110.42955322 -65.5027002 109.99973145 -66.36938477 109.55688477 C-71.83028717 106.71442566 -71.83028717 106.71442566 -72.9453125 104.484375 C-58.1416382 96.51137508 -43.31719607 88.59006972 -28.38085938 80.86767578 C-21.90615884 77.51749278 -15.47731884 74.10041621 -9.10546875 70.55859375 C-6.9453125 69.484375 -6.9453125 69.484375 -4.9453125 69.484375 C-4.9453125 68.824375 -4.9453125 68.164375 -4.9453125 67.484375 C-5.63326904 67.38866211 -6.32122559 67.29294922 -7.0300293 67.19433594 C-10.58085165 66.32960171 -13.36920754 64.85559778 -16.58984375 63.125 C-17.22887131 62.78385666 -17.86789886 62.44271332 -18.52629089 62.0912323 C-20.60685974 60.97848451 -22.68233489 59.85658577 -24.7578125 58.734375 C-26.19047365 57.96570222 -27.62341867 57.19755828 -29.05664062 56.42993164 C-33.35763597 54.12355215 -37.6518354 51.80471093 -41.9453125 49.484375 C-43.22829688 48.79205119 -44.51133504 48.09982703 -45.79443359 47.40771484 C-52.5184947 43.77964328 -59.23594486 40.13955037 -65.9453125 36.484375 C-65.9453125 35.494375 -65.9453125 34.504375 -65.9453125 33.484375 C-65.30319824 33.1534082 -64.66108398 32.82244141 -63.99951172 32.48144531 C-52.40657701 26.49865926 -40.83508064 20.48310412 -29.3828125 14.234375 C-28.48481934 13.74662598 -27.58682617 13.25887695 -26.66162109 12.75634766 C-22.46950551 10.4665884 -18.32033021 8.13233584 -14.23046875 5.6640625 C-13.13810913 5.0148584 -13.13810913 5.0148584 -12.02368164 4.35253906 C-10.68524672 3.55196222 -9.35656114 2.73473563 -8.04077148 1.89746094 C-5.07465472 0.13151876 -3.44764515 -0.60356653 0 0 Z " fill="#0B0C0C" transform="translate(209.9453125,5.515625)" data-index="1" style="opacity: 1;"></path>

<path d="M0 0 C13.58521501 10.76231319 19.64147305 28.21432492 21.6796875 44.890625 C23.63859384 67.16618855 22.4796819 92.33965154 8.5625 110.9375 C7.39750459 112.31107537 6.2107473 113.66657787 5 115 C4.45601562 115.62390625 3.91203125 116.2478125 3.3515625 116.890625 C-5.73839151 126.70606829 -17.9000043 131.6687617 -31.14453125 132.34765625 C-48.04437823 132.80846471 -62.72369726 130.10421749 -75.640625 118.38671875 C-77.27686748 116.71756334 -78.61065137 114.87562065 -80 113 C-81.485 112.505 -81.485 112.505 -83 112 C-83 136.42 -83 160.84 -83 186 C-89.93 186 -96.86 186 -104 186 C-104.02311597 160.72281366 -104.04097767 135.44562986 -104.05181217 110.1684351 C-104.05697578 98.43268029 -104.06401971 86.69693216 -104.07543945 74.96118164 C-104.08538432 64.73628165 -104.09185295 54.51138649 -104.09408849 44.2864818 C-104.09539594 38.86889481 -104.09848391 33.45132166 -104.10573006 28.03373909 C-104.11248716 22.94081678 -104.1146176 17.84791408 -104.11310768 12.75498772 C-104.11338415 10.88000253 -104.1153911 9.00501673 -104.11920547 7.1300354 C-104.12413789 4.58174728 -104.12299997 2.0335344 -104.12025452 -0.51475525 C-104.12316736 -1.26668638 -104.1260802 -2.0186175 -104.12908131 -2.79333442 C-104.11412121 -7.88587879 -104.11412121 -7.88587879 -103 -9 C-101.5112814 -9.08669432 -100.018555 -9.10703494 -98.52734375 -9.09765625 C-97.71773193 -9.09515869 -96.90812012 -9.09266113 -96.07397461 -9.09008789 C-95.03893799 -9.08098389 -94.00390137 -9.07187988 -92.9375 -9.0625 C-89.658125 -9.041875 -86.37875 -9.02125 -83 -9 C-83 -2.07 -83 4.86 -83 12 C-78.93133426 9.55880056 -77.47320994 8.66993566 -74.8125 5.25 C-56.40376119 -16.37927411 -21.82680235 -16.24410335 0 0 Z " fill="#030303" transform="translate(2883,194)" data-index="3"></path>
<path d="M0 0 C1.37322088 0.68720775 2.74659088 1.37411762 4.12010193 2.06074524 C6.97625534 3.4895984 9.83105802 4.92110203 12.68481445 6.35473633 C16.34802578 8.19490401 20.01390274 10.02968539 23.68069553 11.86270428 C26.50638415 13.27568414 29.33102821 14.69074101 32.15531731 16.10651588 C33.5079234 16.78441154 34.86077338 17.46182079 36.21386909 18.13873863 C38.09354854 19.07965707 39.97189011 20.02319153 41.84985352 20.9675293 C42.9188942 21.50395554 43.98793488 22.04038177 45.08937073 22.59306335 C47.49609375 23.86328125 47.49609375 23.86328125 48.49609375 24.86328125 C48.59108021 27.29724144 48.62167792 29.70271077 48.60961914 32.13696289 C48.60976517 32.89788742 48.60991119 33.65881195 48.61006165 34.4427948 C48.60936237 36.96970423 48.6015693 39.49654087 48.59375 42.0234375 C48.59188587 43.77078715 48.59046195 45.51813732 48.58946228 47.26548767 C48.58563668 51.87360059 48.57580604 56.4816822 48.5647583 61.08978271 C48.55454509 65.78836646 48.54996485 70.48695524 48.54492188 75.18554688 C48.5341838 84.41147212 48.51710688 93.63737409 48.49609375 102.86328125 C35.56182375 109.97635668 22.58473278 116.97212139 9.43359375 123.67578125 C7.3683064 124.73075433 5.30348884 125.78662714 3.2394104 126.84396362 C1.90418021 127.5277797 0.56823965 128.21021078 -0.76846313 128.8911438 C-3.94893182 130.51841958 -7.10001413 132.18024808 -10.21435547 133.93115234 C-11.36049316 134.57262207 -12.50663086 135.2140918 -13.6875 135.875 C-14.69224365 136.45080811 -15.6969873 137.02661621 -16.73217773 137.61987305 C-20.26255117 139.20361231 -22.73805012 139.51569115 -26.38720703 138.16748047 C-27.28415283 137.67272217 -27.28415283 137.67272217 -28.19921875 137.16796875 C-29.25181885 136.59961304 -29.25181885 136.59961304 -30.32568359 136.01977539 C-31.08574707 135.59688232 -31.84581055 135.17398926 -32.62890625 134.73828125 C-34.33133722 133.81642548 -36.03450651 132.89593234 -37.73828125 131.9765625 C-38.66060547 131.47592285 -39.58292969 130.9752832 -40.53320312 130.45947266 C-45.94794696 127.55007134 -51.4170964 124.74550237 -56.87890625 121.92578125 C-59.17595372 120.73470757 -61.47282953 119.54330275 -63.76953125 118.3515625 C-68.12987384 116.09062093 -72.49477302 113.8388678 -76.86328125 111.59375 C-78.78524152 110.60042538 -80.70712118 109.60694478 -82.62890625 108.61328125 C-83.51755371 108.15961182 -84.40620117 107.70594238 -85.32177734 107.23852539 C-86.12695801 106.82078857 -86.93213867 106.40305176 -87.76171875 105.97265625 C-88.46441895 105.61139648 -89.16711914 105.25013672 -89.89111328 104.87792969 C-91.50390625 103.86328125 -91.50390625 103.86328125 -92.50390625 101.86328125 C-92.59670543 99.42186565 -92.62974553 97.00928066 -92.61743164 94.56787109 C-92.61757767 93.81655411 -92.61772369 93.06523712 -92.61787415 92.29115295 C-92.61717621 89.80214575 -92.60938939 87.31321292 -92.6015625 84.82421875 C-92.5996979 83.1007186 -92.59827419 81.37721791 -92.59727478 79.65371704 C-92.59345294 75.11302228 -92.58362547 70.5723594 -92.5725708 66.03167725 C-92.56234954 61.4000288 -92.55777562 56.76837522 -92.55273438 52.13671875 C-92.54200292 43.04555889 -92.52493047 33.95442272 -92.50390625 24.86328125 C-79.54431597 17.75551372 -66.56919559 10.71122094 -53.40063477 3.99658203 C-48.1636623 1.31650844 -42.98509305 -1.39592423 -37.91796875 -4.38671875 C-37.06936279 -4.8751123 -36.22075684 -5.36350586 -35.34643555 -5.86669922 C-33.8014798 -6.76283942 -32.27225944 -7.68700039 -30.76489258 -8.64501953 C-20.97300938 -14.24005257 -9.04010011 -4.54623347 0 0 Z " fill="#090A0A" transform="translate(229.50390625,157.13671875)" data-index="4" style="opacity: 1;"></path>
<path d="M0 0 C70.35176471 0 70.35176471 0 86.75 15.25 C104.21493529 34.02685531 104.9464135 60.56629202 104.16845703 84.6796875 C103.53638199 97.13797825 100.59430625 108.81138751 95 120 C94.34 120 93.68 120 93 120 C92.89816406 120.58007812 92.79632812 121.16015625 92.69140625 121.7578125 C90.5616931 128.6643399 82.98522939 134.38627659 77 138 C52.82682712 150.38567228 26.84197383 146 0 146 C0 97.82 0 49.64 0 0 Z " fill="#FEFEFE" transform="translate(1936,159)" data-index="5"></path>
<path d="M0 0 C1.06825516 0.00045822 2.13651031 0.00091644 3.23713684 0.00138855 C5.46807992 0.00438269 7.69902144 0.01218235 9.92993164 0.0246582 C13.36156501 0.0431277 16.79293107 0.04516604 20.22460938 0.04492188 C22.39974194 0.04983017 24.57487267 0.05565545 26.75 0.0625 C28.29351387 0.06416924 28.29351387 0.06416924 29.86820984 0.06587219 C31.28152336 0.07544197 31.28152336 0.07544197 32.72338867 0.08520508 C33.97148567 0.09092278 33.97148567 0.09092278 35.24479675 0.09675598 C37.14453125 0.23046875 37.14453125 0.23046875 38.14453125 1.23046875 C38.24424911 3.14505157 38.27533714 5.06329192 38.27734375 6.98046875 C38.27863281 8.14578125 38.27992188 9.31109375 38.28125 10.51171875 C38.27738281 11.73890625 38.27351562 12.96609375 38.26953125 14.23046875 C38.27339844 15.45765625 38.27726563 16.68484375 38.28125 17.94921875 C38.27931641 19.6971875 38.27931641 19.6971875 38.27734375 21.48046875 C38.27621582 22.558125 38.27508789 23.63578125 38.27392578 24.74609375 C38.14453125 27.23046875 38.14453125 27.23046875 37.14453125 28.23046875 C35.54842143 28.3238058 33.94819697 28.34792247 32.34936523 28.34399414 C31.32838242 28.34391861 30.3073996 28.34384308 29.25547791 28.34376526 C28.14507645 28.33860397 27.03467499 28.33344269 25.890625 28.328125 C24.76004166 28.32671005 23.62945831 28.3252951 22.46461487 28.32383728 C18.8370606 28.31821894 15.20956701 28.30566333 11.58203125 28.29296875 C9.12955818 28.28795611 6.67708415 28.2833928 4.22460938 28.27929688 C-1.80212579 28.26909245 -7.82872897 28.24952061 -13.85546875 28.23046875 C-13.85546875 38.79046875 -13.85546875 49.35046875 -13.85546875 60.23046875 C-10.18550781 60.21886719 -6.51554688 60.20726562 -2.734375 60.1953125 C0.80346592 60.18752323 4.34130589 60.18144573 7.87915039 60.17553711 C10.34595158 60.17049519 12.81274977 60.16366184 15.27954102 60.1550293 C18.81657654 60.1429575 22.3535727 60.13723919 25.890625 60.1328125 C27.00102646 60.12765121 28.11142792 60.12248993 29.25547791 60.11717224 C30.78695213 60.11705894 30.78695213 60.11705894 32.34936523 60.11694336 C33.25315414 60.11472275 34.15694305 60.11250214 35.08811951 60.11021423 C37.14453125 60.23046875 37.14453125 60.23046875 38.14453125 61.23046875 C38.14453125 69.81046875 38.14453125 78.39046875 38.14453125 87.23046875 C20.98453125 87.23046875 3.82453125 87.23046875 -13.85546875 87.23046875 C-13.85546875 115.28046875 -13.85546875 143.33046875 -13.85546875 172.23046875 C0.99453125 172.23046875 15.84453125 172.23046875 31.14453125 172.23046875 C31.14453125 181.14046875 31.14453125 190.05046875 31.14453125 199.23046875 C15.38536061 199.25301604 -0.37379733 199.27144808 -16.13297939 199.28228092 C-23.44974277 199.28744381 -30.76649545 199.29448637 -38.08325195 199.3059082 C-44.45829893 199.31585526 -50.83333816 199.32232223 -57.20839268 199.32455724 C-60.58594889 199.32586432 -63.96348291 199.32894994 -67.34103203 199.33619881 C-71.10554218 199.34340488 -74.8700056 199.34445988 -78.63452148 199.34399414 C-79.76236557 199.34758942 -80.89020966 199.35118469 -82.05223083 199.35488892 C-83.58146179 199.35282692 -83.58146179 199.35282692 -85.1415863 199.35072327 C-86.03296012 199.35164506 -86.92433393 199.35256685 -87.84271908 199.35351658 C-89.85546875 199.23046875 -89.85546875 199.23046875 -90.85546875 198.23046875 C-90.95518661 196.31588593 -90.98627464 194.39764558 -90.98828125 192.48046875 C-90.98957031 191.31515625 -90.99085938 190.14984375 -90.9921875 188.94921875 C-90.98832031 187.72203125 -90.98445312 186.49484375 -90.98046875 185.23046875 C-90.98433594 184.00328125 -90.98820313 182.77609375 -90.9921875 181.51171875 C-90.99089844 180.34640625 -90.98960937 179.18109375 -90.98828125 177.98046875 C-90.98715332 176.9028125 -90.98602539 175.82515625 -90.98486328 174.71484375 C-90.85546875 172.23046875 -90.85546875 172.23046875 -89.85546875 171.23046875 C-86.75316731 171.14173343 -83.67259516 171.11521188 -80.5703125 171.1328125 C-79.74567505 171.13381958 -78.9210376 171.13482666 -78.07141113 171.13586426 C-74.97858294 171.14111283 -71.88577451 171.15507398 -68.79296875 171.16796875 C-61.88359375 171.18859375 -54.97421875 171.20921875 -47.85546875 171.23046875 C-47.85546875 143.84046875 -47.85546875 116.45046875 -47.85546875 88.23046875 C-62.70546875 88.23046875 -77.55546875 88.23046875 -92.85546875 88.23046875 C-92.85546875 78.99046875 -92.85546875 69.75046875 -92.85546875 60.23046875 C-78.00546875 60.23046875 -63.15546875 60.23046875 -47.85546875 60.23046875 C-47.97345305 50.47849838 -47.97345305 50.47849838 -48.12573242 40.72705078 C-48.19614392 29.13262454 -46.89225741 20.03547985 -38.85546875 11.23046875 C-28.23115759 0.84225339 -14.17932504 -0.10120339 0 0 Z " fill="#0D0E0E" transform="translate(689.85546875,121.76953125)" data-index="6" style="opacity: 1;"></path>
<path d="M0 0 C7.4544552 4.78670538 11.30031883 12.00214063 13.91015625 20.2265625 C14.32974609 19.39125 14.32974609 19.39125 14.7578125 18.5390625 C19.65608252 9.21502439 24.64772572 2.58414144 34.91015625 -0.7734375 C42.91342146 -3.12548191 51.34016476 -2.1258623 58.91015625 1.2265625 C68.02184551 8.31343192 71.16725696 19.09839405 72.70022392 30.1143055 C73.1209632 34.34761958 73.03934781 38.59343083 73.02368164 42.84350586 C73.02382767 43.8881601 73.02397369 44.93281433 73.02412415 46.00912476 C73.02343026 49.44490674 73.01566241 52.88063379 73.0078125 56.31640625 C73.00594646 58.70536774 73.00452343 61.09432962 73.00352478 63.48329163 C72.99971425 69.75832178 72.98989648 76.03332863 72.9788208 82.30834961 C72.96857518 88.71663091 72.96402041 95.12491599 72.95898438 101.53320312 C72.94827288 114.09766811 72.93068795 126.66210972 72.91015625 139.2265625 C63.67015625 139.2265625 54.43015625 139.2265625 44.91015625 139.2265625 C44.90081055 136.18381104 44.89146484 133.14105957 44.88183594 130.00610352 C44.84801927 119.93575538 44.79244402 109.86561115 44.72625351 99.79542637 C44.68679968 93.69181326 44.65460072 87.58834398 44.63916016 81.48461914 C44.6239801 75.59056296 44.58950975 69.69690225 44.54184723 63.80302238 C44.5270475 61.558089 44.51911605 59.31309915 44.5182724 57.06811714 C44.51589684 53.91551016 44.48876839 50.76399084 44.45605469 47.61157227 C44.46108505 46.69015442 44.46611542 45.76873657 44.47129822 44.81939697 C44.37195026 38.60254461 43.11439031 33.60422234 39.91015625 28.2265625 C36.57532216 25.16963125 33.41850725 24.6829218 28.90234375 24.87890625 C25.48274074 25.4756605 23.47815246 26.9571705 20.91015625 29.2265625 C17.42476236 34.55499858 17.4741787 39.28896326 17.49365234 45.4387207 C17.48506699 46.45236191 17.47648163 47.46600311 17.46763611 48.51036072 C17.4426093 51.84942609 17.43820098 55.18819323 17.43359375 58.52734375 C17.41928397 60.84808765 17.403527 63.16882304 17.38638306 65.48954773 C17.3445532 71.58991817 17.31953695 77.69023582 17.29888916 83.79071045 C17.26304828 93.57335818 17.20225299 103.35587602 17.14039993 113.13838768 C17.12124671 116.56249836 17.10956366 119.98657418 17.09896851 123.41072083 C17.08876298 125.49427366 17.07840563 127.57782576 17.06787109 129.66137695 C17.06682877 130.62083221 17.06578644 131.58028748 17.06471252 132.56881714 C17.05925919 133.43659286 17.05380585 134.30436859 17.04818726 135.19844055 C17.04563116 135.95665761 17.04307507 136.71487467 17.04044151 137.496068 C16.91015625 139.2265625 16.91015625 139.2265625 15.91015625 140.2265625 C13.83753549 140.31423362 11.76195331 140.33352123 9.6875 140.32421875 C8.42744141 140.32099609 7.16738281 140.31777344 5.86914062 140.31445312 C4.52864516 140.30609653 3.18815037 140.29763157 1.84765625 140.2890625 C0.50325683 140.2840491 -0.84114435 140.27948592 -2.18554688 140.27539062 C-5.48702316 140.26355738 -8.78841178 140.24707221 -12.08984375 140.2265625 C-12.09570999 138.92665878 -12.10157623 137.62675507 -12.10762024 136.28746033 C-12.16485856 124.03097017 -12.23762631 111.77465725 -12.32555866 99.51834774 C-12.37026647 93.21740437 -12.40952196 86.91652572 -12.4362793 80.61547852 C-12.46230778 74.53345592 -12.50270762 68.45168233 -12.55303001 62.36981392 C-12.56970168 60.05065574 -12.58121407 57.73145449 -12.58745766 55.4122448 C-12.59709516 52.16120233 -12.62515155 48.91079736 -12.6574707 45.65991211 C-12.65603561 44.7032515 -12.65460052 43.74659088 -12.65312195 42.76094055 C-12.73172803 37.16172492 -13.40659344 33.17569462 -16.08984375 28.2265625 C-19.48734325 25.21734865 -22.57974496 24.74072784 -27.09765625 24.9453125 C-30.30939634 25.39873463 -32.43671816 26.37554465 -35.08984375 28.2265625 C-38.61999686 33.5439036 -38.52565126 38.37441527 -38.50634766 44.53051758 C-38.51493301 45.55391235 -38.52351837 46.57730713 -38.53236389 47.63171387 C-38.5573927 51.00324416 -38.56179921 54.37447912 -38.56640625 57.74609375 C-38.58071586 60.08925781 -38.5964728 62.43241344 -38.61361694 64.77555847 C-38.65544851 70.93511283 -38.68046361 77.0946149 -38.70111084 83.25427246 C-38.73695046 93.13167134 -38.79774639 103.00894157 -38.85960007 112.88620567 C-38.87875369 116.34355508 -38.89043648 119.80086997 -38.90103149 123.258255 C-38.91123702 125.36203081 -38.92159437 127.46580589 -38.93212891 129.56958008 C-38.9336924 131.02278908 -38.9336924 131.02278908 -38.93528748 132.50535583 C-38.94074081 133.38154572 -38.94619415 134.2577356 -38.95181274 135.16047668 C-38.95436884 135.92606809 -38.95692493 136.69165949 -38.95955849 137.48045063 C-39.08984375 139.2265625 -39.08984375 139.2265625 -40.08984375 140.2265625 C-49.32984375 140.2265625 -58.56984375 140.2265625 -68.08984375 140.2265625 C-68.08984375 94.3565625 -68.08984375 48.4865625 -68.08984375 1.2265625 C-58.84984375 1.2265625 -49.60984375 1.2265625 -40.08984375 1.2265625 C-37.97058771 3.34581854 -38.67153358 7.8461718 -38.52734375 10.7890625 C-38.48416016 11.59537109 -38.44097656 12.40167969 -38.39648438 13.23242188 C-38.29009113 15.23025055 -38.18943487 17.2283832 -38.08984375 19.2265625 C-37.53296875 18.0509375 -36.97609375 16.8753125 -36.40234375 15.6640625 C-32.44382333 7.81646938 -28.58860577 2.78412623 -20.40234375 -1.0234375 C-13.72571568 -2.53512688 -6.37573263 -2.80165664 0 0 Z " fill="#0D0E0E" transform="translate(1279.08984375,180.7734375)" data-index="7" style="opacity: 1;"></path>
<path d="M0 0 C10.63192089 8.85055848 16.47655171 18.98128428 18.3125 32.75 C18.57817421 38.4003745 18.54636452 44.04007761 18.5078125 49.6953125 C18.50407517 51.31769637 18.50123161 52.94008253 18.49923706 54.56246948 C18.49165724 58.80060223 18.47205836 63.03859452 18.4498291 67.27667236 C18.42924787 71.61411642 18.42020927 75.95158352 18.41015625 80.2890625 C18.38880624 88.77611282 18.35367125 97.26302267 18.3125 105.75 C23.5925 105.75 28.8725 105.75 34.3125 105.75 C34.3125 114.33 34.3125 122.91 34.3125 131.75 C30.538125 131.79125 26.76375 131.8325 22.875 131.875 C21.70396729 131.89320801 20.53293457 131.91141602 19.32641602 131.93017578 C10.06758107 131.97875391 1.9921442 131.21436222 -5.6875 125.75 C-9.88178515 121.17745041 -12.53898298 116.1658915 -12.8125 109.875 C-12.77125 109.17375 -12.73 108.4725 -12.6875 107.75 C-13.3475 107.75 -14.0075 107.75 -14.6875 107.75 C-14.873125 108.56791016 -14.873125 108.56791016 -15.0625 109.40234375 C-17.33397539 117.70742565 -21.66941164 123.26823954 -29.0078125 127.80078125 C-43.3134612 135.5393256 -58.87191584 137.09771039 -74.6875 132.75 C-85.25373316 128.81930797 -94.13589645 122.29696424 -98.93359375 111.8671875 C-103.00063351 100.44575979 -103.98395275 86.34166932 -98.93359375 75.03515625 C-92.73849735 63.67424279 -83.49915171 58.00907391 -71.19873047 54.32275391 C-53.51927804 49.53890207 -34.8237566 50.4945044 -16.6875 50.75 C-16.73556235 36.01465182 -16.73556235 36.01465182 -22.8125 23 C-32.26854904 15.5996138 -41.84719434 16.03180678 -53.33203125 16.96484375 C-63.53088253 18.60033522 -71.62883348 25.78895355 -77.6875 33.75 C-82.23342263 31.65578279 -85.62617799 28.5762223 -89.375 25.3125 C-90.06400391 24.72662109 -90.75300781 24.14074219 -91.46289062 23.53710938 C-92.44612305 22.68536133 -92.44612305 22.68536133 -93.44921875 21.81640625 C-94.04694092 21.30021729 -94.64466309 20.78402832 -95.26049805 20.25219727 C-96.6875 18.75 -96.6875 18.75 -97.6875 15.75 C-90.77528299 3.87676237 -78.43877508 -3.28383268 -65.60546875 -7.1875 C-44.94697625 -12.59248923 -17.93505212 -13.2406425 0 0 Z " fill="#0C0D0D" transform="translate(1162.6875,189.25)" data-index="8" style="opacity: 1;"></path>
<path d="M0 0 C10.45648662 8.73837132 16.48768674 18.09373795 18.375 31.8125 C18.45981232 34.30271721 18.49277737 36.79496365 18.48852539 39.28662109 C18.48867142 40.00926147 18.48881744 40.73190186 18.4889679 41.47644043 C18.48827561 43.84630416 18.48051546 46.21608763 18.47265625 48.5859375 C18.47078964 50.23645993 18.46936688 51.88698292 18.46836853 53.5375061 C18.4645625 57.86771187 18.45474866 62.19788374 18.44366455 66.52807617 C18.43340917 70.95230654 18.42886209 75.37654241 18.42382812 79.80078125 C18.41312458 88.4713714 18.39554338 97.14192757 18.375 105.8125 C23.985 105.8125 29.595 105.8125 35.375 105.8125 C35.4018245 109.95837582 35.42175315 114.10408038 35.4375 118.25 C35.44587891 119.43400391 35.45425781 120.61800781 35.46289062 121.83789062 C35.46611328 122.96259766 35.46933594 124.08730469 35.47265625 125.24609375 C35.47789307 126.28822021 35.48312988 127.33034668 35.48852539 128.40405273 C35.375 130.8125 35.375 130.8125 34.375 131.8125 C30.54871823 132.06818707 26.70879216 131.99774483 22.875 132 C21.81023437 132.01224609 20.74546875 132.02449219 19.6484375 132.03710938 C10.6466759 132.05369739 2.57959837 131.70717139 -4.625 125.8125 C-9.04279921 121.18922176 -12.39524121 116.41205438 -12.8125 109.875 C-12.750625 109.194375 -12.68875 108.51375 -12.625 107.8125 C-13.285 107.8125 -13.945 107.8125 -14.625 107.8125 C-14.74875 108.555 -14.8725 109.2975 -15 110.0625 C-15.57986701 112.61391485 -16.36208739 114.5392573 -17.625 116.8125 C-18.285 116.8125 -18.945 116.8125 -19.625 116.8125 C-19.76228516 117.69421875 -19.76228516 117.69421875 -19.90234375 118.59375 C-21.61128322 123.84065605 -27.69353763 127.51075951 -32.375 130.0625 C-47.39412143 136.8415587 -63.50409848 136.21578559 -78.9296875 131.0390625 C-87.74907692 127.17836593 -94.71947368 120.03265675 -98.6875 111.3671875 C-100.92186607 105.27853996 -101.98698526 99.93672253 -101.9375 93.5 C-101.93331055 92.75451904 -101.92912109 92.00903809 -101.92480469 91.2409668 C-101.6936466 79.91545008 -97.99458697 71.46432331 -89.796875 63.546875 C-77.88704048 54.03614383 -62.53259402 51.62841769 -47.75390625 51.71484375 C-46.37041237 51.71696617 -46.37041237 51.71696617 -44.95896912 51.71913147 C-42.03511202 51.72469494 -39.11133365 51.73724058 -36.1875 51.75 C-34.19596465 51.75501972 -32.2044281 51.7595818 -30.21289062 51.76367188 C-25.35023044 51.77465238 -20.48762853 51.79189161 -15.625 51.8125 C-15.75871744 49.60512204 -15.89941294 47.39816621 -16.04296875 45.19140625 C-16.1205542 43.96236572 -16.19813965 42.7333252 -16.27807617 41.46704102 C-16.94938576 34.39537792 -18.10872781 26.73241844 -23.625 21.8125 C-33.26428462 15.8790748 -44.41773256 15.51341362 -55.4375 17.4375 C-62.74274839 19.35563785 -68.60212214 24.35908976 -73.625 29.8125 C-74.95833333 31.14583333 -76.29166667 32.47916667 -77.625 33.8125 C-82.16244333 31.71396375 -85.60542502 28.67263618 -89.375 25.4375 C-90.07238281 24.86 -90.76976562 24.2825 -91.48828125 23.6875 C-92.14699219 23.12289062 -92.80570313 22.55828125 -93.484375 21.9765625 C-94.08733398 21.46561035 -94.69029297 20.9546582 -95.31152344 20.42822266 C-96.625 18.8125 -96.625 18.8125 -96.625 14.8125 C-94.64453931 11.83879914 -92.11971872 9.36166695 -89.625 6.8125 C-89.1196875 6.28269531 -88.614375 5.75289062 -88.09375 5.20703125 C-67.42835513 -14.45672458 -22.9923961 -16.90272922 0 0 Z " fill="#0B0C0C" transform="translate(851.625,189.1875)" data-index="9" style="opacity: 1;"></path>
<path d="M0 0 C0 0.66 0 1.32 0 2 C0.74636719 2.10570312 1.49273438 2.21140625 2.26171875 2.3203125 C10.7420175 4.4252654 16.64418324 14.02888954 21 21 C30.30780539 38.08181892 31 53.37663838 31 73 C-1.01 73 -33.02 73 -66 73 C-64.79834512 85.75561403 -64.79834512 85.75561403 -60 96 C-59.46375 96.86625 -58.9275 97.7325 -58.375 98.625 C-49.89591143 107.10408857 -40.30251898 108.84571393 -28.63671875 109.0625 C-16.05741541 108.58041891 -6.05125706 103.6390556 3 95 C4.03421378 93.69302654 5.04688802 92.3672437 6 91 C11.04345768 93.23576682 14.44365888 97.03672918 18.3125 100.875 C19.06595703 101.59558594 19.81941406 102.31617188 20.59570312 103.05859375 C21.30275391 103.75855469 22.00980469 104.45851563 22.73828125 105.1796875 C23.38837158 105.81632324 24.03846191 106.45295898 24.70825195 107.10888672 C26 109 26 109 25.82885742 111.09814453 C24.54416243 114.04594245 22.33179758 115.87609763 20 118 C19.39285156 118.61101562 18.78570313 119.22203125 18.16015625 119.8515625 C3.27708497 134.20804466 -16.34060134 137.49602315 -36.2578125 137.21484375 C-54.66504109 136.61175791 -71.16387356 130.30288548 -84.1875 117 C-98.30432494 100.12937965 -102.24505469 77.38013261 -101 56 C-99.17993315 36.45972973 -92.06175451 17.96569593 -76.6875 5.05859375 C-54.47184643 -11.42513639 -24.27226874 -12.13613437 0 0 Z " fill="#0D0E0E" transform="translate(1472,187)" data-index="10" style="opacity: 1;"></path>
<path d="M0 0 C11.22 0 22.44 0 34 0 C34.33 27.39 34.66 54.78 35 83 C37.31 79.37 39.62 75.74 42 72 C49.33927276 63.57788371 57.75302197 58.29422276 69 57 C82.81783214 56.11880853 95.03867712 58.80214872 106.3125 67.25 C122.56434671 83.87979663 122.31438144 104.87167897 122.23046875 126.67578125 C122.22927429 128.73845898 122.22882435 130.80113725 122.2290802 132.86381531 C122.22752694 137.15428139 122.2193194 141.44466265 122.20581055 145.73510742 C122.1886823 151.2454797 122.18500078 156.7557604 122.18575573 162.2661562 C122.18548476 166.50989156 122.18001767 170.75360675 122.17275429 174.99733543 C122.16956668 177.03120967 122.1676 179.06508619 122.16686058 181.09896278 C122.16470588 183.9231933 122.15598481 186.74732396 122.14526367 189.5715332 C122.14571686 190.41556198 122.14617004 191.25959076 122.14663696 192.12919617 C122.11448832 197.88551168 122.11448832 197.88551168 121 199 C118.47905924 199.08847743 115.98569107 199.11527301 113.46484375 199.09765625 C112.33496788 199.09553383 112.33496788 199.09553383 111.18226624 199.09336853 C108.7673044 199.08775376 106.35243399 199.07519883 103.9375 199.0625 C102.30403779 199.0574869 100.67057414 199.05292366 99.03710938 199.04882812 C95.02470415 199.03777954 91.01236759 199.02050506 87 199 C86.99413376 197.85709503 86.98826752 196.71419006 86.98222351 195.53665161 C86.92487904 184.73797993 86.85205636 173.93950736 86.76428509 163.14103889 C86.71965855 157.5901346 86.68038543 152.0393024 86.65356445 146.48828125 C86.62745451 141.12593661 86.5869978 135.76387054 86.53681374 130.40169907 C86.52019695 128.3613419 86.5086505 126.32093661 86.50238609 124.28052139 C86.4926884 121.41084197 86.46456195 118.54186697 86.43237305 115.67236328 C86.43380814 114.83869736 86.43524323 114.00503143 86.4367218 113.14610291 C86.30489635 104.77423403 84.6679824 96.61060816 78.72265625 90.40234375 C72.63339682 85.44532757 63.9835913 84.52324388 56.38671875 85.25 C48.76956137 86.54456999 42.66782491 89.6560508 37 95 C34.43274022 99.66736273 34.70042591 104.36543691 34.69702148 109.54785156 C34.68436249 110.98031219 34.68436249 110.98031219 34.67144775 112.44171143 C34.64570122 115.59135443 34.63353931 118.74090386 34.62109375 121.890625 C34.60492015 124.07827498 34.5877403 126.26591773 34.56959534 128.45355225 C34.52392956 134.20703808 34.48910695 139.96053348 34.45739746 145.71411133 C34.40549117 154.93814638 34.34055969 164.16207581 34.26918221 173.3859787 C34.24627499 176.61507723 34.23005492 179.84416212 34.21446228 183.07330322 C34.20106275 185.03877923 34.18744858 187.00425378 34.17358398 188.96972656 C34.16966393 190.32710938 34.16966393 190.32710938 34.16566467 191.71191406 C34.11364008 197.88635992 34.11364008 197.88635992 33 199 C30.56339554 199.10082764 28.15575299 199.13972603 25.71875 199.1328125 C24.99006714 199.13376923 24.26138428 199.13472595 23.51062012 199.13571167 C21.9672029 199.13639335 20.42378283 199.13453988 18.88037109 199.13037109 C16.510026 199.12502262 14.13987041 199.13031642 11.76953125 199.13671875 C10.27343708 199.13605797 8.77734303 199.1347768 7.28125 199.1328125 C6.21094543 199.13584885 6.21094543 199.13584885 5.11901855 199.13894653 C0.11495191 199.11495191 0.11495191 199.11495191 -1 198 C-1.09997085 195.46033403 -1.134411 192.94779924 -1.12698364 190.40759277 C-1.12854363 189.6029841 -1.13010362 188.79837543 -1.13171089 187.96938467 C-1.13572421 185.25235803 -1.13252997 182.53538651 -1.12939453 179.81835938 C-1.13074843 177.87897204 -1.13252829 175.93958495 -1.13470459 174.00019836 C-1.13928034 168.71729469 -1.13748878 163.43441045 -1.1343255 158.15150642 C-1.13180263 152.63595653 -1.13413924 147.12040835 -1.13571167 141.6048584 C-1.13753358 132.34057312 -1.1351265 123.07629579 -1.13037109 113.81201172 C-1.12492843 103.08462114 -1.12669108 92.35724956 -1.1321975 81.62985945 C-1.13672802 72.43754141 -1.13737948 63.24522912 -1.13475883 54.05291033 C-1.13319572 48.55485758 -1.13300321 43.05681378 -1.13629532 37.5587616 C-1.13917315 32.39113152 -1.13719996 27.22352607 -1.13140106 22.05589867 C-1.13007299 20.15350066 -1.13046837 18.25110059 -1.13266373 16.34870338 C-1.1353734 13.76324286 -1.13199637 11.17786256 -1.12698364 8.59240723 C-1.12921436 7.82948537 -1.13144509 7.06656352 -1.13374341 6.28052282 C-1.11414985 1.11414985 -1.11414985 1.11414985 0 0 Z " fill="#0E0F0F" transform="translate(1688,122)" data-index="11"></path>
<path d="M0 0 C101.38603315 0 101.38603315 0 124.11206055 22.00219727 C125.42442236 23.31866806 126.7131805 24.65855137 128 26 C128.61359375 26.61746094 129.2271875 27.23492187 129.859375 27.87109375 C145.62897606 44.81935056 149.40390805 70.00346035 149.375 92.125 C149.37478851 92.80020691 149.37457703 93.47541382 149.37435913 94.17108154 C149.2943978 119.85951169 142.19605327 144.14371258 124 163 C90.61855596 192.41582889 40.1052388 184 0 184 C0 123.28 0 62.56 0 0 Z M22 19 C22 67.18 22 115.36 22 165 C66.37258581 168.1812597 66.37258581 168.1812597 107 151 C112.77596735 145.83984137 112.77596735 145.83984137 115 139 C115.66 139 116.32 139 117 139 C129.13751297 115.06079458 129.7751041 82.88694977 121.8984375 57.44140625 C117.14721159 44.18395331 110.41488226 33.49417215 98.0078125 26.41796875 C94.39056581 24.71269531 90.74433769 23.40060457 86.9375 22.1875 C86.28918213 21.98044434 85.64086426 21.77338867 84.97290039 21.56005859 C65.50746228 15.76121933 39.51030816 19 22 19 Z " fill="#030303" transform="translate(1914,140)" data-index="12"></path>
<path d="M0 0 C4.78397143 3.75437758 7.91218525 8.39993986 10.984375 13.59765625 C11.3659375 14.22414062 11.7475 14.850625 12.140625 15.49609375 C18.03779789 26.08419962 18.42650449 38.01968433 18.234375 49.84765625 C18.22921875 51.16378906 18.2240625 52.47992188 18.21875 53.8359375 C18.13927268 63.44275857 18.13927268 63.44275857 16.984375 64.59765625 C13.97087262 64.69295237 10.98033394 64.72317529 7.96655273 64.71118164 C7.02031036 64.71132767 6.07406799 64.71147369 5.09915161 64.71162415 C1.95540108 64.71092461 -1.18829101 64.70313034 -4.33203125 64.6953125 C-6.50536568 64.69344846 -8.67870052 64.69202449 -10.85203552 64.69102478 C-16.58463695 64.68719846 -22.31721323 64.67736722 -28.04980469 64.6663208 C-33.89452779 64.65610912 -39.73925493 64.65152768 -45.58398438 64.64648438 C-57.061209 64.63574505 -68.53841491 64.61866727 -80.015625 64.59765625 C-79.55829631 67.47221297 -79.09524662 70.34565332 -78.62890625 73.21875 C-78.50100708 74.02646851 -78.37310791 74.83418701 -78.24133301 75.66638184 C-76.25958483 87.79418758 -72.40516062 98.87595088 -62.265625 106.47265625 C-50.50784927 113.94699451 -37.12153224 113.98202711 -23.59375 112.12890625 C-13.6236091 109.7631101 -6.36776493 104.26636813 -1.015625 95.59765625 C-0.33056951 94.27367695 0.341728 92.94273136 0.984375 91.59765625 C6.95089854 93.16779402 11.81346525 96.34795407 16.984375 99.59765625 C11.69513736 112.08982555 2.6088443 122.65162384 -10.140625 127.87890625 C-28.58903643 134.20924351 -50.03905254 133.88246791 -68.078125 126.3125 C-81.77892902 119.48112688 -91.54142355 108.00739835 -96.94921875 93.80078125 C-100.6265663 82.75526846 -101.28360006 72.48883039 -101.328125 60.91015625 C-101.33646362 59.07529663 -101.33646362 59.07529663 -101.3449707 57.20336914 C-101.17743002 35.98584523 -95.62297627 18.75916966 -80.86328125 3.17578125 C-58.93660322 -16.67553219 -23.65885998 -16.46033088 0 0 Z " fill="#010101" transform="translate(3037.015625,194.40234375)" data-index="13"></path>
<path d="M0 0 C10.60274627 8.80647891 16.47404693 20.59469179 18.41796875 34.1015625 C18.50765098 36.47137316 18.54858701 38.84333776 18.55078125 41.21484375 C18.55173798 41.86986374 18.5526947 42.52488373 18.55368042 43.19975281 C18.55435642 44.57205299 18.55254289 45.94435648 18.54833984 47.31665039 C18.54293981 49.42536463 18.54832639 51.53387005 18.5546875 53.64257812 C18.55402746 54.97916714 18.55274784 56.31575602 18.55078125 57.65234375 C18.54965332 58.86575439 18.54852539 60.07916504 18.54736328 61.3293457 C18.41796875 64.1015625 18.41796875 64.1015625 17.41796875 65.1015625 C14.40446637 65.19685862 11.41392769 65.22708154 8.40014648 65.21508789 C7.45390411 65.21523392 6.50766174 65.21537994 5.53274536 65.2155304 C2.38899483 65.21483086 -0.75469726 65.20703659 -3.8984375 65.19921875 C-6.07177193 65.19735471 -8.24510677 65.19593074 -10.41844177 65.19493103 C-16.1510432 65.19110471 -21.88361948 65.18127347 -27.61621094 65.17022705 C-33.46093404 65.16001537 -39.30566118 65.15543393 -45.15039062 65.15039062 C-56.62761525 65.1396513 -68.10482116 65.12257352 -79.58203125 65.1015625 C-79.13879486 67.95312549 -78.68705564 70.80291364 -78.23046875 73.65234375 C-78.10728271 74.45063599 -77.98409668 75.24892822 -77.85717773 76.07141113 C-76.16925691 86.49978004 -73.04171677 97.71413247 -64.65234375 104.7109375 C-52.838603 113.20337747 -40.75183606 114.46415619 -26.58203125 113.1015625 C-17.4386517 111.47077937 -9.55851664 108.27273758 -3.80078125 100.78515625 C-1.88386565 97.96855621 -0.10600473 95.14950945 1.41796875 92.1015625 C2.73796875 92.1015625 4.05796875 92.1015625 5.41796875 92.1015625 C5.41796875 92.7615625 5.41796875 93.4215625 5.41796875 94.1015625 C6.09859375 94.3490625 6.77921875 94.5965625 7.48046875 94.8515625 C10.98661958 96.34354158 14.13417243 98.16991761 17.41796875 100.1015625 C10.78421705 114.68123657 2.88833371 123.69610473 -12.39453125 129.4765625 C-20.02156658 132.13044771 -27.33361067 132.28414947 -35.33203125 132.2890625 C-36.36585938 132.30130859 -37.3996875 132.31355469 -38.46484375 132.32617188 C-54.12661863 132.35575961 -69.99291161 128.121891 -81.58203125 117.1015625 C-82.48115234 116.27978516 -82.48115234 116.27978516 -83.3984375 115.44140625 C-92.18938074 106.49313069 -97.4856809 93.28118481 -99.58203125 81.1015625 C-99.76378906 80.07933594 -99.94554688 79.05710937 -100.1328125 78.00390625 C-102.46328867 57.75916113 -100.81104957 37.80387686 -92.58203125 19.1015625 C-91.92203125 19.1015625 -91.26203125 19.1015625 -90.58203125 19.1015625 C-90.32292969 18.37582031 -90.06382812 17.65007812 -89.796875 16.90234375 C-84.91555673 5.64862929 -74.44441747 -1.96312174 -63.51953125 -6.7734375 C-43.25638547 -14.44965471 -17.82190815 -13.10355123 0 0 Z " fill="#010101" transform="translate(2197.58203125,193.8984375)" data-index="14"></path>
<path d="M0 0 C10.01682944 9.27038302 15.89497574 23.00464272 16.44189453 36.58886719 C16.44358643 38.36245605 16.44358643 38.36245605 16.4453125 40.171875 C16.44660156 41.45964844 16.44789063 42.74742187 16.44921875 44.07421875 C16.44712402 44.73856934 16.4450293 45.40291992 16.44287109 46.08740234 C16.43748007 48.13256115 16.44285061 50.17750389 16.44921875 52.22265625 C16.44792969 53.50527344 16.44664062 54.78789062 16.4453125 56.109375 C16.44418457 57.28725586 16.44305664 58.46513672 16.44189453 59.67871094 C16.3125 62.375 16.3125 62.375 15.3125 63.375 C12.29899762 63.47029612 9.30845894 63.50051904 6.29467773 63.48852539 C5.34843536 63.48867142 4.40219299 63.48881744 3.42727661 63.4889679 C0.28352608 63.48826836 -2.86016601 63.48047409 -6.00390625 63.47265625 C-8.17724068 63.47079221 -10.35057552 63.46936824 -12.52391052 63.46836853 C-18.25651195 63.46454221 -23.98908823 63.45471097 -29.72167969 63.44366455 C-35.56640279 63.43345287 -41.41112993 63.42887143 -47.25585938 63.42382812 C-58.733084 63.4130888 -70.21028991 63.39601102 -81.6875 63.375 C-81.24341225 66.40365958 -80.79031598 69.43051501 -80.33203125 72.45703125 C-80.14646667 73.73229675 -80.14646667 73.73229675 -79.95715332 75.0333252 C-78.26587635 86.08388919 -74.4064864 96.70262494 -65.65625 104.08984375 C-54.44428175 112.16325047 -42.06180344 112.53941574 -28.6875 111.375 C-20.08273018 109.91479664 -12.71180933 106.82270456 -6.6875 100.375 C-4.42670791 97.16204858 -2.48009761 93.86880789 -0.6875 90.375 C3.14240706 91.02243667 5.8408898 92.82811237 9.0625 94.9375 C10.04734375 95.57816406 11.0321875 96.21882813 12.046875 96.87890625 C12.79453125 97.37261719 13.5421875 97.86632812 14.3125 98.375 C12.97687879 107.99832204 4.66816532 116.31174386 -2.82421875 121.99609375 C-17.97075834 132.0353704 -37.98124477 132.62564191 -55.46484375 129.6796875 C-70.32779695 126.59719172 -82.45173922 118.73758955 -91.5 106.5625 C-104.77611006 86.25786108 -105.24810148 59.91449671 -101.6875 36.5625 C-98.99300792 24.79316194 -92.93365077 13.20884971 -84.6875 4.375 C-84.11902344 3.76527344 -83.55054687 3.15554687 -82.96484375 2.52734375 C-61.15619122 -18.54046283 -23.34085819 -17.79347933 0 0 Z " fill="#010101" transform="translate(2491.6875,195.625)" data-index="15"></path>
<path d="M0 0 C0 0.66 0 1.32 0 2 C0.85182861 2.26103516 1.70365723 2.52207031 2.58129883 2.79101562 C6.1456322 4.05150115 9.34577699 5.59974346 12.69921875 7.34375 C13.32785324 7.6692131 13.95648773 7.99467621 14.60417175 8.33000183 C16.6341918 9.38241103 18.66089311 10.44103529 20.6875 11.5 C22.08788887 12.22793702 23.48844319 12.95555584 24.88916016 13.68286133 C28.31393532 15.46274502 31.73584834 17.24803854 35.15631104 19.03619385 C36.82435573 19.90818027 38.49295589 20.77910393 40.16162109 21.64990234 C48.49970576 26.00369993 56.77536706 30.43075948 65 35 C65 61.07 65 87.14 65 114 C57.08 117.96 57.08 117.96 49 122 C44.84141799 124.09071835 44.84141799 124.09071835 40.68395996 126.18367004 C36.93544187 128.07168637 33.1844785 129.9548256 29.43359375 131.83813477 C27.46283764 132.82859716 25.49279524 133.82048081 23.5234375 134.8137207 C20.63210371 136.27154608 17.73819403 137.72414295 14.84375 139.17578125 C13.97278687 139.6164241 13.10182373 140.05706696 12.20446777 140.51106262 C11.375802 140.92547104 10.54713623 141.33987946 9.69335938 141.7668457 C8.97772827 142.12688187 8.26209717 142.48691803 7.52478027 142.85786438 C4.08972604 144.41178091 0.53012916 145.67620157 -3 147 C-3 121.59 -3 96.18 -3 70 C-4.98 69.34 -6.96 68.68 -9 68 C-11.26438099 66.9521882 -13.50980682 65.8628939 -15.73974609 64.74365234 C-16.38435791 64.42149246 -17.02896973 64.09933258 -17.69311523 63.76741028 C-19.80514335 62.71070432 -21.91428716 61.64837411 -24.0234375 60.5859375 C-25.49442307 59.84857797 -26.96558667 59.11157348 -28.43692017 58.37490845 C-32.29542333 56.44185192 -36.15149897 54.50400121 -40.00708008 52.56512451 C-43.94726888 50.58477238 -47.88974665 48.60898826 -51.83203125 46.6328125 C-59.5569284 42.7596623 -67.27926568 38.88144169 -75 35 C-75 34.34 -75 33.68 -75 33 C-66.45607464 28.5684964 -57.90191032 24.15762272 -49.33561707 19.76951599 C-44.37919274 17.22845521 -39.43451674 14.66597558 -34.49642944 12.08947754 C-31.23369708 10.39233739 -27.96234812 8.71232226 -24.68884277 7.03607178 C-23.10826791 6.22223851 -21.53131466 5.4013317 -19.95812988 4.57330322 C-17.74813787 3.41155958 -15.5266181 2.27554766 -13.30078125 1.14453125 C-12.64896378 0.79440475 -11.9971463 0.44427826 -11.32557678 0.08354187 C-6.86693213 -2.13696328 -4.49207722 -2.11303104 0 0 Z " fill="#FEFEFE" transform="translate(282,112)" data-index="16" style="opacity: 1; visibility: visible;"></path>
<path d="M0 0 C0 0.66 0 1.32 0 2 C1.65 2.33 3.3 2.66 5 3 C5 3.66 5 4.32 5 5 C5.58265625 5.10183594 6.1653125 5.20367187 6.765625 5.30859375 C9.37219275 6.11517153 10.73535414 7.24157009 12.75 9.0625 C13.36359375 9.61035156 13.9771875 10.15820312 14.609375 10.72265625 C15.29773437 11.35494141 15.29773437 11.35494141 16 12 C15.41880058 15.12109993 14.57500937 16.8107346 12.3828125 19.09375 C11.85816406 19.64933594 11.33351563 20.20492187 10.79296875 20.77734375 C10.24253906 21.34582031 9.69210937 21.91429687 9.125 22.5 C4.2940034 27.52112894 4.2940034 27.52112894 0 33 C-3.24516258 32.39957344 -5.0940176 31.33940675 -7.625 29.25 C-21.02524397 18.90203383 -35.4202475 16.50953936 -51.8828125 18.31640625 C-57.44161178 19.36221425 -61.79108895 21.56077594 -65.6484375 25.8203125 C-67.27315293 28.44051831 -67.34318297 29.94359862 -67.25 33 C-67.23453125 33.845625 -67.2190625 34.69125 -67.203125 35.5625 C-66.94551771 38.86201598 -66.94551771 38.86201598 -66 42 C-62.60056068 44.44019159 -58.27840445 45.00201647 -54.25 45.875 C-53.47285645 46.04717041 -52.69571289 46.21934082 -51.89501953 46.39672852 C-45.25744928 47.82407224 -38.58079735 48.88788313 -31.875 49.9375 C-15.92415719 52.48294096 1.3747936 55.70527657 12 69 C19.02578288 79.75709244 19.75589096 91.85032721 17.3515625 104.37890625 C13.65194882 115.4935576 5.54226693 124.15574206 -4.8203125 129.4375 C-29.29897194 140.17487542 -58.79032192 140.06622234 -83.65234375 130.50390625 C-93.25778993 126.18874081 -102.52585738 120.4816287 -109 112 C-109 109 -109 109 -107.6015625 107.4921875 C-106.94929688 106.95851563 -106.29703125 106.42484375 -105.625 105.875 C-101.32589442 102.31026121 -97.30871042 98.50906996 -93.296875 94.625 C-91 93 -91 93 -88.9140625 93.0546875 C-86.70990302 94.14327239 -85.35532553 95.37901542 -83.625 97.125 C-71.8629106 107.75023318 -56.45181076 111.79400012 -40.91796875 111.29296875 C-33.33480126 110.7259323 -26.34988251 109.32748843 -20 105 C-16.881306 100.59081193 -16.6260221 96.59374591 -16.50390625 91.3671875 C-17.1788667 88.14651007 -18.50788878 87.1201738 -21 85 C-29.92719322 81.09298879 -39.74591173 79.92333848 -49.3125 78.5625 C-84.34767249 73.26568198 -84.34767249 73.26568198 -95.75390625 58.88671875 C-102.09733164 49.28209661 -103.40021336 38.30205242 -101.50390625 27.05859375 C-98.82989094 16.19635076 -92.8566586 7.37616152 -83.34375 1.3046875 C-58.17034943 -12.1617284 -25.736828 -11.32420432 0 0 Z " fill="#0C0D0D" transform="translate(1636,187)" data-index="17"></path>
<path d="M0 0 C1.80868813 0.00333092 1.80868813 0.00333092 3.65391541 0.00672913 C4.64899864 0.00651009 4.64899864 0.00651009 5.66418457 0.00628662 C7.86644207 0.00698571 10.06861596 0.01477787 12.27085876 0.02259827 C13.79400588 0.02446246 15.31715359 0.02588636 16.84030151 0.02688599 C20.85657903 0.03071105 24.87282059 0.04054124 28.88908386 0.05158997 C33.70399991 0.06359902 38.51892795 0.06820638 43.33385468 0.07404327 C50.65532899 0.08375301 57.97672436 0.10290961 65.29820251 0.12025452 C65.29820251 12.66025452 65.29820251 25.20025452 65.29820251 38.12025452 C65.95820251 38.12025452 66.61820251 38.12025452 67.29820251 38.12025452 C67.53603455 37.21146545 67.53603455 37.21146545 67.77867126 36.28431702 C71.28668668 23.6864716 76.55017876 13.57783202 87.79820251 6.47181702 C97.50629964 1.22337701 106.81540474 -0.04292406 117.67320251 0.05775452 C118.60003845 0.06226624 119.52687439 0.06677795 120.48179626 0.07142639 C122.7539996 0.08313878 125.02606639 0.09954079 127.29820251 0.12025452 C127.32285644 4.65923157 127.3410404 9.19816995 127.35313416 13.73719788 C127.35817391 15.28245217 127.36500571 16.82770168 127.37364197 18.37294006 C127.38572328 20.5895048 127.39143424 22.8060067 127.39585876 25.02259827 C127.40102005 25.71739792 127.40618134 26.41219757 127.41149902 27.12805176 C127.41169528 28.79254782 127.3600938 30.4569095 127.29820251 32.12025452 C125.32025 34.09820704 121.4218944 33.28094639 118.71226501 33.29603577 C117.12501271 33.31927077 115.53777314 33.34338949 113.95054626 33.36830139 C111.45160367 33.4031375 108.95311782 33.43259184 106.45396423 33.44618225 C94.56230073 33.52349353 82.87592298 33.69663498 73.72789001 42.42884827 C66.44716005 51.04238945 66.00294392 62.16584862 65.88414001 72.93666077 C65.86477386 74.03372849 65.84540771 75.1307962 65.82545471 76.2611084 C65.7660946 79.73491352 65.71944868 83.20875257 65.67320251 86.68275452 C65.63498262 89.05060681 65.5959286 91.41844579 65.55601501 93.78627014 C65.45887307 99.56419224 65.37895799 105.34198766 65.29820251 111.12025452 C81.13820251 111.12025452 96.97820251 111.12025452 113.29820251 111.12025452 C113.29820251 120.36025452 113.29820251 129.60025452 113.29820251 139.12025452 C98.19095276 139.14280213 83.08371159 139.16123404 67.97644901 139.17206669 C60.96235618 139.1772295 53.94827451 139.1842719 46.93418884 139.19569397 C40.17152184 139.20670139 33.40886887 139.21253071 26.64619255 139.21513176 C24.05967971 139.21698655 21.47316754 139.22060818 18.88665962 139.22598457 C15.27781396 139.23319103 11.66901704 139.23424563 8.06016541 139.23377991 C6.43852982 139.23917282 6.43852982 139.23917282 4.78413391 139.24467468 C3.80671738 139.24330002 2.82930084 139.24192535 1.82226562 139.24050903 C0.96776353 139.24143083 0.11326143 139.24235262 -0.76713467 139.24330235 C-2.70179749 139.12025452 -2.70179749 139.12025452 -3.70179749 138.12025452 C-3.78927956 136.19357944 -3.80877083 134.26373591 -3.79945374 132.33509827 C-3.79695618 131.28185364 -3.79445862 130.22860901 -3.79188538 129.14344788 C-3.78278137 127.79516907 -3.77367737 126.44689026 -3.76429749 125.05775452 C-3.74367249 120.78837952 -3.72304749 116.51900452 -3.70179749 112.12025452 C7.84820251 112.12025452 19.39820251 112.12025452 31.29820251 112.12025452 C31.29820251 84.07025452 31.29820251 56.02025452 31.29820251 27.12025452 C19.74820251 27.12025452 8.19820251 27.12025452 -3.70179749 27.12025452 C-3.72242249 22.85087952 -3.74304749 18.58150452 -3.76429749 14.18275452 C-3.77340149 12.83447571 -3.78250549 11.4861969 -3.79188538 10.09706116 C-3.79438293 9.04381653 -3.79688049 7.9905719 -3.79945374 6.90541077 C-3.80469055 5.82138977 -3.80992737 4.73736877 -3.81532288 3.62049866 C-3.65686311 0.13063524 -3.50884934 0.15617565 0 0 Z " fill="#0D0E0E" transform="translate(913.7017974853516,181.87974548339844)" data-index="18" style="opacity: 1;"></path>
<path d="M0 0 C0.90242432 0.47945068 1.80484863 0.95890137 2.73461914 1.45288086 C3.77577881 1.99992676 4.81693848 2.54697266 5.88964844 3.1105957 C7.00509033 3.70694824 8.12053223 4.30330078 9.26977539 4.91772461 C11.04990275 5.85564781 12.83004485 6.79354365 14.61079407 7.73028564 C15.86468679 8.39046605 17.11800293 9.05174259 18.37077332 9.71405029 C25.36179392 13.40935353 32.39102503 17.02995658 39.42141724 20.64962769 C42.16017906 22.06001494 44.89782281 23.47256442 47.63543701 24.88517761 C50.20084656 26.20892071 52.76656135 27.53207181 55.33227539 28.85522461 C55.33227539 29.84522461 55.33227539 30.83522461 55.33227539 31.85522461 C54.27129639 32.39824219 53.21031738 32.94125977 52.1171875 33.50073242 C48.0692251 35.57283778 44.02179595 37.64598277 39.97457886 39.71954346 C38.17578374 40.64107307 36.37689502 41.56242001 34.57791138 42.48358154 C23.03519985 48.39485015 11.50115776 54.31908114 0.06054688 60.42651367 C-0.75857178 60.85931641 -1.57769043 61.29211914 -2.42163086 61.73803711 C-3.10555908 62.10300293 -3.7894873 62.46796875 -4.49414062 62.84399414 C-7.12672211 64.06876697 -9.91318319 64.93704414 -12.66772461 65.85522461 C-12.66772461 91.59522461 -12.66772461 117.33522461 -12.66772461 143.85522461 C-16.89776011 143.00921751 -19.27865954 142.20870643 -22.97241211 140.25756836 C-35.65607771 133.56604709 -48.36543738 126.92804223 -61.11303711 120.35913086 C-62.53762321 119.62452059 -63.96218386 118.88986094 -65.38671875 118.15515137 C-68.81342941 116.38794355 -72.24047717 114.62139119 -75.66772461 112.85522461 C-75.89962676 102.78940915 -76.07720447 92.72423075 -76.18584633 82.65628624 C-76.23799652 77.98091541 -76.30869459 73.30737423 -76.42211914 68.63305664 C-76.53094069 64.12008398 -76.59059715 59.60886811 -76.61649704 55.0946846 C-76.63494723 53.37447058 -76.67098145 51.6543508 -76.72502518 49.93488693 C-77.13096037 36.48204927 -77.13096037 36.48204927 -73.59617615 32.55207825 C-71.00320829 30.96729289 -68.52298374 29.88060286 -65.66772461 28.85522461 C-64.56533447 28.24412842 -63.46294434 27.63303223 -62.32714844 27.00341797 C-61.35285889 26.4891626 -60.37856934 25.97490723 -59.37475586 25.44506836 C-58.26052246 24.85371094 -57.14628906 24.26235352 -55.99829102 23.65307617 C-54.8373291 23.03916016 -53.67636719 22.42524414 -52.48022461 21.79272461 C-42.21526441 16.34080408 -32.04148489 10.75262445 -21.95214844 4.97998047 C-20.25285205 4.00884221 -18.55054843 3.04293599 -16.84448242 2.08374023 C-15.02096162 1.05458403 -13.21337512 -0.00273696 -11.40991211 -1.06665039 C-7.24915651 -2.70250302 -4.03822587 -1.73288561 0 0 Z " fill="#0B0C0C" transform="translate(79.667724609375,80.144775390625)" data-index="19"></path>
<path d="M0 0 C4.47671433 0.89534287 7.32321681 2.00210099 11.3125 4.0625 C12.91544922 4.88427734 12.91544922 4.88427734 14.55078125 5.72265625 C15.35902344 6.14417969 16.16726562 6.56570312 17 7 C17 7.66 17 8.32 17 9 C17.63679688 9.07347656 18.27359375 9.14695313 18.9296875 9.22265625 C23.32103752 10.33446115 27.10651275 12.37684633 31.125 14.4375 C31.99866211 14.88053467 32.87232422 15.32356934 33.77246094 15.7800293 C36.51953557 17.17797957 39.26064532 18.58698768 42 20 C42.87817383 20.45213867 43.75634766 20.90427734 44.66113281 21.37011719 C47.1940543 22.67801534 49.72304534 23.99311436 52.25 25.3125 C53.01070801 25.70816162 53.77141602 26.10382324 54.55517578 26.51147461 C55.28462402 26.8956958 56.01407227 27.27991699 56.765625 27.67578125 C57.39243164 28.00489502 58.01923828 28.33400879 58.66503906 28.6730957 C59.82084473 29.32991333 59.82084473 29.32991333 61 30 C61.66572021 30.22688004 62.33144043 30.45376007 63.01733398 30.68751526 C65.67974536 31.82933273 67.13903103 32.75685271 69 35 C70.16591945 40.39570101 69.93034227 45.75492695 69.78125 51.23828125 C69.76632078 52.84536419 69.75493696 54.45248366 69.74694824 56.05961609 C69.71646588 60.28070383 69.6379424 64.49957365 69.54931641 68.7197876 C69.46733717 73.02968337 69.43091135 77.33993919 69.390625 81.65039062 C69.30493919 90.10127599 69.16848559 98.55036178 69 107 C64.95210458 105.68109182 61.20098111 104.22407169 57.39453125 102.3125 C56.33814453 101.78366211 55.28175781 101.25482422 54.19335938 100.70996094 C53.07767578 100.14567383 51.96199219 99.58138672 50.8125 99 C49.65427734 98.41766602 48.49605469 97.83533203 47.30273438 97.23535156 C39.83191601 93.46690393 32.39291121 89.64216877 25.01879883 85.6875 C16.76201363 81.27802322 8.38538492 77.19269246 0 73 C0 95.44 0 117.88 0 141 C-3.50482473 140.12379382 -5.92557582 139.13131392 -9.0859375 137.48046875 C-10.58979004 136.69760498 -10.58979004 136.69760498 -12.12402344 135.89892578 C-13.1968457 135.33415527 -14.26966797 134.76938477 -15.375 134.1875 C-16.48391602 133.60726074 -17.59283203 133.02702148 -18.73535156 132.42919922 C-27.80824375 127.66534939 -36.81767 122.78933436 -45.796875 117.8515625 C-51.84715958 114.53571584 -57.92533753 111.2709721 -64 108 C-64 85.56 -64 63.12 -64 40 C-59.43089712 41.52303429 -55.34125105 43.1891613 -51.08203125 45.34375 C-50.10558151 45.83201263 -50.10558151 45.83201263 -49.10940552 46.33013916 C-47.0082692 47.38250322 -44.91026708 48.44093777 -42.8125 49.5 C-41.36602336 50.22700057 -39.91948989 50.95388808 -38.47290039 51.68066406 C-25.51088122 58.20421737 -12.60100305 64.79942683 0 72 C0 48.24 0 24.48 0 0 Z " fill="#0C0D0D" transform="translate(68,225)" data-index="20"></path>
<path d="M0 0 C0 0.66 0 1.32 0 2 C0.556875 2.0825 1.11375 2.165 1.6875 2.25 C8.71212231 4.52825588 11.81633227 10.80807323 15 17 C23.41520277 35.03649322 23.50357755 59.07782394 17.25 77.8125 C13.67470821 86.78371186 8.37266624 94.92693684 -0.52734375 99.21875 C-11.89569154 103.89296054 -26.06452377 105.4000221 -37.8359375 101.03125 C-49.17548798 95.62756529 -55.22241464 87.77427709 -59.95703125 76.28515625 C-65.76411932 57.99391629 -65.75811491 34.64582828 -57.64453125 17.0625 C-51.66995171 6.29864624 -43.73097517 0.70584131 -32.25 -3.3125 C-21.8802215 -5.4868084 -9.57521934 -4.78760967 0 0 Z " fill="#FCFCFC" transform="translate(2863,205)" data-index="21"></path>
<path d="M0 0 C15.38070467 11.3750823 23.33020625 27.81675506 26.20703125 46.51171875 C29.11640961 69.38066631 25.845905 93.22694189 11.71484375 112.0078125 C11.26496094 112.62269531 10.81507813 113.23757813 10.3515625 113.87109375 C1.7670295 124.77707793 -11.79433407 130.89337425 -25.28515625 133.0078125 C-45.20637392 134.62140795 -64.20680699 132.59422925 -80.2578125 119.6015625 C-93.26985371 107.43073991 -100.47654421 91.39087113 -101.47802734 73.57714844 C-102.07200671 47.1468665 -100.83519352 25.48044645 -81.69921875 5.2265625 C-59.94639192 -14.76632689 -24.39943598 -15.46301704 0 0 Z M-69.59765625 20.2578125 C-81.95826568 36.28470438 -82.42807809 58.31509515 -79.94384766 77.66650391 C-79.1254425 82.26230985 -77.87535003 86.61269358 -76.28515625 91.0078125 C-75.99640625 91.80703125 -75.70765625 92.60625 -75.41015625 93.4296875 C-71.33255567 102.82273168 -64.18965303 108.63347588 -55.1171875 112.9140625 C-44.28823512 117.09627859 -29.46524208 116.51009557 -18.796875 112.26953125 C-9.3133799 107.50566046 -2.11280401 99.93108618 1.71484375 90.0078125 C4.41059514 80.88490697 5.23058012 72.17642441 5.15234375 62.6953125 C5.1462207 61.42727783 5.14009766 60.15924316 5.13378906 58.8527832 C4.97568072 49.35351259 4.0218831 40.94141187 0.71484375 32.0078125 C0.42609375 31.21117187 0.13734375 30.41453125 -0.16015625 29.59375 C-3.82019271 21.12991569 -10.41975393 14.62394174 -18.796875 10.9375 C-35.52248349 4.68837155 -56.97073323 6.63487265 -69.59765625 20.2578125 Z " fill="#010101" transform="translate(2713.28515625,192.9921875)" data-index="22"></path>
<path d="M0 0 C7.26 0 14.52 0 22 0 C27.44924659 13.34509369 32.57488875 26.79207805 37.61407471 40.29541016 C43.81041849 56.89354406 50.11118945 73.45109296 56.4375 90 C56.67630764 90.6247736 56.91511528 91.2495472 57.16115952 91.89325333 C60.10550572 99.59624254 63.05166979 107.29853481 66 115 C66.66 115 67.32 115 68 115 C71.26486538 107.03372847 74.35908213 99.09238858 77.00390625 90.89453125 C78.39831468 86.84254441 80.09890372 82.93915226 81.78125 79 C82.98781516 76.02999346 84.01510066 73.05001087 85 70 C86.65778794 64.8662051 88.66351425 59.95860078 90.78125 55 C91.98781516 52.02999346 93.01510066 49.05001087 94 46 C95.65778794 40.8662051 97.66351425 35.95860078 99.78125 31 C100.98781516 28.02999346 102.01510066 25.05001087 103 22 C105.45031998 14.42990577 108.4417995 7.11640101 112 0 C118.93 0 125.86 0 133 0 C132.04340164 3.82639345 130.7842706 7.42174265 129.39453125 11.1015625 C129.1231131 11.82529556 128.85169495 12.54902863 128.572052 13.29469299 C127.65450277 15.73900024 126.7335707 18.18201773 125.8125 20.625 C125.15233643 22.38058188 124.4922642 24.13619811 123.83227539 25.8918457 C115.57820708 47.830071 107.24764457 69.73949349 98.92723083 91.65261841 C94.81890228 102.47387807 90.71969004 113.29857322 86.625 124.125 C86.32778046 124.91079437 86.03056091 125.69658875 85.72433472 126.50619507 C84.14920664 130.67066459 82.57452448 134.83530215 81 139 C71.76 139 62.52 139 53 139 C50.38884417 133.77768835 48.05150199 128.835646 46.06640625 123.40234375 C45.66147697 122.31272591 45.66147697 122.31272591 45.24836731 121.20109558 C44.65998041 119.61710459 44.07349419 118.03240655 43.4887085 116.44708252 C41.85073345 112.0089527 40.19630157 107.57695797 38.54296875 103.14453125 C38.18591858 102.18653625 37.82886841 101.22854126 37.46099854 100.24151611 C32.8330636 87.84373386 28.10133047 75.48552025 23.375 63.125 C22.47245823 60.76270878 21.5699515 58.40040418 20.66748047 56.03808594 C17.04097498 46.5484538 13.41104115 37.06017852 9.7611084 27.57952881 C8.51702312 24.34801615 7.274901 21.11575039 6.03277588 17.88348389 C5.20915162 15.7437498 4.38180118 13.60548322 3.55419922 11.46728516 C3.07111789 10.21132885 2.588196 8.95531119 2.10546875 7.69921875 C1.69449951 6.63533936 1.28353027 5.57145996 0.86010742 4.4753418 C0 2 0 2 0 0 Z " fill="#020202" transform="translate(2236,185)" data-index="23"></path>
<path d="M0 0 C6.6 0 13.2 0 20 0 C20.00364563 2.0869519 20.00729126 4.17390381 20.01104736 6.32409668 C20.04728051 25.98247031 20.10548268 45.64069128 20.18390274 65.29894257 C20.22369233 75.40567792 20.25608525 85.51233542 20.27099609 95.61914062 C20.284013 104.42943487 20.31097872 113.23955781 20.35461307 122.04975557 C20.37722695 126.71363575 20.39291072 131.37730464 20.39188385 136.04124451 C20.3911372 140.43425766 20.40909003 144.82680376 20.44116783 149.21969604 C20.449662 150.82887135 20.45142002 152.43809907 20.44580269 154.04728699 C20.29684474 165.65099922 20.29684474 165.65099922 25 176 C28.76300374 177.25433458 32.27210909 177.10695422 36.1875 177.0625 C37.31188477 177.05573242 37.31188477 177.05573242 38.45898438 177.04882812 C40.30602383 177.03706354 42.15302213 177.01912865 44 177 C46.29612756 188.52164009 46.29612756 188.52164009 46 194 C37.79041697 198.08843777 25.42237493 197.21307126 16.875 194.5 C9.79154732 191.37718753 4.69514169 186.51975011 1.8057251 179.29325867 C-0.82743055 171.60805949 -0.52892775 163.88122971 -0.45410156 155.87036133 C-0.4529713 154.16432726 -0.45361042 152.45829125 -0.45587158 150.7522583 C-0.4570127 146.15164333 -0.43360161 141.55145101 -0.40557575 136.95093369 C-0.38046107 132.13167389 -0.37821219 127.31240292 -0.37347412 122.49308777 C-0.36107381 113.38083293 -0.32829226 104.26877152 -0.28807616 95.15660161 C-0.24326653 84.77688576 -0.22134835 74.39716037 -0.20129442 64.01737177 C-0.15955686 42.67813723 -0.08845051 21.33908766 0 0 Z " fill="#000000" transform="translate(2545,130)" data-index="24"></path>
<path d="M0 0 C1.54970345 2.76641278 0.92327226 4.34084081 0.22265625 7.453125 C-0.16019531 8.70609375 -0.54304688 9.9590625 -0.9375 11.25 C-1.31777344 12.51328125 -1.69804687 13.7765625 -2.08984375 15.078125 C-2.39019531 16.04234375 -2.69054688 17.0065625 -3 18 C-6.4176057 19.17821566 -8.26949725 18.79212234 -11.625 17.5625 C-21.59850139 14.41757109 -30.43852832 15.87951924 -40 20 C-48.84393983 25.3603944 -52.3629421 33.79186979 -54.75 43.5 C-57.24273161 54.74627752 -57.19816596 66.14253074 -57.31640625 77.6015625 C-57.33701588 79.2912136 -57.35801329 80.98086001 -57.37937927 82.67050171 C-57.43418649 87.08608161 -57.4837755 91.50170479 -57.53222656 95.9173584 C-57.58274641 100.43582951 -57.63827224 104.95423892 -57.69335938 109.47265625 C-57.80043402 118.31505307 -57.90152487 127.15750323 -58 136 C-64.6 136 -71.2 136 -78 136 C-78 90.46 -78 44.92 -78 -2 C-71.73 -2 -65.46 -2 -59 -2 C-58.67 4.93 -58.34 11.86 -58 19 C-57.01 19.33 -56.02 19.66 -55 20 C-54.89816406 19.26652344 -54.79632812 18.53304687 -54.69140625 17.77734375 C-53.00638523 11.00870001 -46.97029797 5.1696384 -41.34375 1.28515625 C-29.08385588 -5.43735236 -12.50893869 -7.09789166 0 0 Z " fill="#000000" transform="translate(3170,188)" data-index="25"></path>
<path d="M0 0 C6.37040346 5.58935782 9.17672362 12.69659714 11.0390625 20.7890625 C11.22855469 21.52640625 11.41804688 22.26375 11.61328125 23.0234375 C12.21043256 26.90218177 12.0390625 30.86462027 12.0390625 34.7890625 C-13.3709375 34.7890625 -38.7809375 34.7890625 -64.9609375 34.7890625 C-64.9609375 22.38752163 -61.51910309 12.02466497 -53.18359375 2.828125 C-39.40895477 -10.52397904 -15.22744181 -10.92286462 0 0 Z " fill="#FCFCFC" transform="translate(3022.9609375,207.2109375)" data-index="26"></path>
<path d="M0 0 C7.49722597 6.27743921 10.59628011 16.17839527 11.96875 25.6484375 C11.96875 28.6184375 11.96875 31.5884375 11.96875 34.6484375 C-13.77125 34.6484375 -39.51125 34.6484375 -66.03125 34.6484375 C-60.42212948 6.60283489 -60.42212948 6.60283489 -47.5390625 -2.01953125 C-32.53068951 -9.99126831 -13.98030129 -10.09141467 0 0 Z " fill="#FCFCFC" transform="translate(2476.03125,207.3515625)" data-index="27"></path>
<path d="M0 0 C0 0.66 0 1.32 0 2 C0.58910156 2.10183594 1.17820312 2.20367187 1.78515625 2.30859375 C6.22160941 3.69351828 8.58608263 7.18514844 11 11 C12.16160636 13.55158678 13.07826481 16.14531046 13.9375 18.8125 C14.14882568 19.45131104 14.36015137 20.09012207 14.57788086 20.74829102 C16.37764242 26.88491957 16 31.11141962 16 38 C-9.41 38 -34.82 38 -61 38 C-59.8568245 25.42506954 -57.57483634 14.31363508 -48.1875 5.25 C-34.99612504 -5.38820561 -15.2291122 -7.6145561 0 0 Z " fill="#FCFCFC" transform="translate(2180,204)" data-index="28"></path>
<path d="M0 0 C0.98608749 0.00212242 0.98608749 0.00212242 1.99209595 0.00428772 C4.07029981 0.00983863 6.14839177 0.0223816 8.2265625 0.03515625 C9.64452968 0.04017761 11.06249857 0.0447394 12.48046875 0.04882812 C15.93753572 0.05979188 19.39453817 0.07702204 22.8515625 0.09765625 C23.93146666 25.42390098 23.93146666 25.42390098 17.8515625 32.09765625 C9.6490218 39.45811102 1.00088591 40.53814499 -9.66796875 40.34375 C-16.00603721 39.89560375 -21.85969925 39.06696811 -26.2109375 34.09765625 C-29.06996696 29.67077192 -29.3320989 26.47615131 -29.3984375 21.28515625 C-29.43710938 19.48111328 -29.43710938 19.48111328 -29.4765625 17.640625 C-29.03745734 12.89933474 -27.33245597 9.69152727 -24.5234375 5.91015625 C-17.6533359 0.66718397 -8.35401299 -0.03570091 0 0 Z " fill="#FBFBFB" transform="translate(1124.1484375,259.90234375)" data-index="29"></path>
<path d="M0 0 C0.98608749 0.00212242 0.98608749 0.00212242 1.99209595 0.00428772 C4.07029981 0.00983863 6.14839177 0.0223816 8.2265625 0.03515625 C9.64452968 0.04017761 11.06249857 0.0447394 12.48046875 0.04882812 C15.93753572 0.05979188 19.39453817 0.07702204 22.8515625 0.09765625 C23.93209746 25.43869453 23.93209746 25.43869453 17.8515625 32.09765625 C9.67287862 39.31324277 1.10231544 40.51569081 -9.546875 40.34765625 C-16.90451204 39.8369309 -21.91040097 37.21097763 -27.1484375 32.09765625 C-30.76756422 26.64400668 -29.86919095 19.32889748 -29.1484375 13.09765625 C-27.43253755 8.56470796 -24.94946187 6.08851108 -20.734375 3.76953125 C-13.90349077 0.83906128 -7.41334809 -0.03168097 0 0 Z " fill="#FCFCFC" transform="translate(813.1484375,259.90234375)" data-index="30" style="opacity: 1; visibility: visible;"></path>
<path d="M0 0 C4.99239213 4.57442442 8.38245087 10.58437963 9.25 17.3125 C9.25 20.6125 9.25 23.9125 9.25 27.3125 C-11.21 27.3125 -31.67 27.3125 -52.75 27.3125 C-52.75 15.33415874 -50.61840061 8.09549816 -42.25390625 -0.5859375 C-38.42462943 -3.79990151 -34.54012511 -5.39912152 -29.75 -6.6875 C-28.2959375 -7.0896875 -28.2959375 -7.0896875 -26.8125 -7.5 C-16.68835744 -8.11984546 -8.08838064 -6.27546774 0 0 Z " fill="#FDFDFD" transform="translate(1458.75,211.6875)" data-index="31" style="opacity: 1; visibility: visible;"></path>
</svg>