<svg width="464" height="499" viewBox="0 0 464 499" fill="none" xmlns="http://www.w3.org/2000/svg">
<path d="M73.043 249.738V333.217L151.652 372.869V290.782L73.043 249.738Z" fill="#D9D9D9"/>
<path d="M0.695652 296.347L0 372.868L73.0435 412.246V333.216L0.695652 296.347Z" fill="#D9D9D9"/>
<path d="M152.346 373.565V454.956L233.737 498.783L391.65 413.217L392.346 332.522L463.998 295.652V125.217L233.042 0L158.607 40.3478L230.259 78.6087L151.65 120.348L230.259 160.696L310.955 119.652L391.65 162.087V251.826L313.737 290.087V373.565L233.737 415.304L152.346 373.565Z" fill="#D9D9D9"/>
<path d="M313.737 290.087L233.042 332.521L151.65 290.087V202.434L230.259 160.695L313.737 202.434V290.087Z" fill="#D9D9D9"/>
<path d="M0.695312 213.565L72.3475 250.434V161.391L151.652 120.347L78.6083 82.7822L0.695312 125.217V213.565Z" fill="#D9D9D9"/>
</svg>
