<?xml version="1.0" encoding="UTF-8"?>
<svg version="1.1" xmlns="http://www.w3.org/2000/svg" width="1310" height="190">
<path d="M0 0 C3.15992668 1.85173546 6.38000258 3.57774231 9.6171875 5.2890625 C10.2312294 5.61397171 10.8452713 5.93888092 11.47792053 6.27363586 C12.73298958 6.93747227 13.98816287 7.60111162 15.24343872 8.26455688 C22.01208293 11.85254795 28.7582977 15.48461861 35.4453125 19.22265625 C39.91536844 21.71913452 44.45032627 24.08277818 48.9921875 26.4453125 C69.04531828 36.93594328 69.04531828 36.93594328 71.6796875 39.5703125 C71.77364807 41.50337748 71.79712267 43.43990088 71.79321289 45.37524414 C71.79313736 46.61645523 71.79306183 47.85766632 71.79298401 49.13648987 C71.78787661 50.5011499 71.7826606 51.86580952 71.77734375 53.23046875 C71.7754795 54.61909433 71.77405563 56.00772057 71.77305603 57.39634705 C71.76923137 61.05752365 71.75940153 64.7186608 71.74835205 68.37982178 C71.73813682 72.11323513 71.73355817 75.84665484 71.72851562 79.58007812 C71.71777921 86.91017427 71.70070341 94.24023786 71.6796875 101.5703125 C69.01364436 102.98816271 66.34687478 104.40461742 63.6796875 105.8203125 C62.56400391 106.41392578 62.56400391 106.41392578 61.42578125 107.01953125 C56.54448035 109.60874303 51.63084709 112.11723798 46.6796875 114.5703125 C46.76460449 115.3859668 46.84952148 116.20162109 46.93701172 117.04199219 C48.87948122 139.57974174 48.87948122 139.57974174 43.76318359 145.96044922 C38.61026161 149.91966823 32.67712592 152.17284125 26.62255859 154.41259766 C22.17710388 156.16142346 18.16427 158.53043079 14.0546875 160.9453125 C8.17306671 164.25331944 2.23648031 167.37907788 -3.83984375 170.31640625 C-6.39604965 171.54558315 -6.39604965 171.54558315 -8.89453125 173.29296875 C-11.3203125 174.5703125 -11.3203125 174.5703125 -13.11010742 174.32958984 C-15.92775899 173.36163487 -18.4650597 172.07307737 -21.109375 170.69921875 C-22.21539062 170.12494141 -23.32140625 169.55066406 -24.4609375 168.95898438 C-26.18570313 168.0550293 -26.18570313 168.0550293 -27.9453125 167.1328125 C-29.10289063 166.53404297 -30.26046875 165.93527344 -31.453125 165.31835938 C-40.06358745 160.82703755 -40.06358745 160.82703755 -42.3203125 158.5703125 C-42.54736328 155.58935547 -42.54736328 155.58935547 -42.515625 151.8125 C-42.5127951 151.14944855 -42.50996521 150.48639709 -42.50704956 149.80325317 C-42.49584685 147.68375667 -42.47074301 145.56468146 -42.4453125 143.4453125 C-42.43528278 142.00912068 -42.42615691 140.57292225 -42.41796875 139.13671875 C-42.3959075 135.61444622 -42.36137744 132.09242047 -42.3203125 128.5703125 C-43.22515381 128.27825928 -44.12999512 127.98620605 -45.06225586 127.68530273 C-47.62293023 126.80897453 -50.00744527 125.88026972 -52.44921875 124.73046875 C-53.17431641 124.38951172 -53.89941406 124.04855469 -54.64648438 123.69726562 C-55.38447266 123.34599609 -56.12246094 122.99472656 -56.8828125 122.6328125 C-57.62466797 122.28541016 -58.36652344 121.93800781 -59.13085938 121.58007812 C-63.0282955 119.73721207 -66.59845855 117.80342487 -70.3203125 115.5703125 C-70.3203125 124.8103125 -70.3203125 134.0503125 -70.3203125 143.5703125 C-72.7334375 142.3740625 -75.1465625 141.1778125 -77.6328125 139.9453125 C-78.36798096 139.58228027 -79.10314941 139.21924805 -79.8605957 138.84521484 C-85.77722773 135.89877346 -91.50292022 132.74343556 -97.3203125 129.5703125 C-97.3203125 120.0003125 -97.3203125 110.4303125 -97.3203125 100.5703125 C-94.3090625 101.9934375 -91.2978125 103.4165625 -88.1953125 104.8828125 C-86.78934814 105.5466394 -86.78934814 105.5466394 -85.35498047 106.22387695 C-84.59846191 106.5818335 -83.84194336 106.93979004 -83.0625 107.30859375 C-81.91563721 107.85060425 -81.91563721 107.85060425 -80.74560547 108.40356445 C-77.92222066 109.76182457 -75.12265043 111.16914354 -72.3203125 112.5703125 C-71.9903125 103.3303125 -71.6603125 94.0903125 -71.3203125 84.5703125 C-72.9703125 83.9103125 -74.6203125 83.2503125 -76.3203125 82.5703125 C-77.59886992 81.97330147 -78.87024428 81.36058997 -80.1328125 80.73046875 C-81.15761719 80.2190332 -81.15761719 80.2190332 -82.203125 79.69726562 C-82.90179688 79.34599609 -83.60046875 78.99472656 -84.3203125 78.6328125 C-85.01898438 78.28541016 -85.71765625 77.93800781 -86.4375 77.58007812 C-87.12070313 77.23783203 -87.80390625 76.89558594 -88.5078125 76.54296875 C-89.12011719 76.23625244 -89.73242188 75.92953613 -90.36328125 75.61352539 C-91.00910156 75.26926514 -91.65492187 74.92500488 -92.3203125 74.5703125 C-93.21387451 74.18955566 -94.10743652 73.80879883 -95.02807617 73.41650391 C-97.3203125 71.5703125 -97.3203125 71.5703125 -97.88793945 68.20043945 C-97.88714986 66.81957113 -97.85900995 65.43854163 -97.80859375 64.05859375 C-97.79798164 62.96625679 -97.79798164 62.96625679 -97.78715515 61.85185242 C-97.75918331 59.52779013 -97.696449 57.2061452 -97.6328125 54.8828125 C-97.60773281 53.30667545 -97.58491905 51.73050059 -97.56445312 50.15429688 C-97.50934876 46.29203852 -97.42306478 42.43158518 -97.3203125 38.5703125 C-93.46181216 36.34139703 -89.59261743 34.1430393 -85.68359375 32.00390625 C-83.02238326 30.54639775 -80.45572074 29.02912103 -77.92578125 27.35546875 C-70.63794686 23.01943646 -70.63794686 23.01943646 -66.31738281 24.04638672 C-60.65903068 26.1908107 -55.51649514 29.38768149 -50.53417969 32.79003906 C-47.59790538 34.68593985 -45.57076954 35.56281379 -42.05859375 35.66796875 C-36.81357437 34.12789514 -32.27797941 31.64473706 -27.5078125 29.0078125 C-25.62818674 27.98221548 -23.74676434 26.95990206 -21.86328125 25.94140625 C-21.03852295 25.48693115 -20.21376465 25.03245605 -19.36401367 24.56420898 C-17.3203125 23.5703125 -17.3203125 23.5703125 -15.3203125 23.5703125 C-15.3203125 22.9103125 -15.3203125 22.2503125 -15.3203125 21.5703125 C-15.87750977 21.45695557 -16.43470703 21.34359863 -17.00878906 21.22680664 C-19.66546117 20.47228707 -21.86489137 19.36068834 -24.3046875 18.06640625 C-25.23925781 17.57333984 -26.17382812 17.08027344 -27.13671875 16.57226562 C-28.10480469 16.05599609 -29.07289062 15.53972656 -30.0703125 15.0078125 C-31.05386719 14.48767578 -32.03742188 13.96753906 -33.05078125 13.43164062 C-35.47603096 12.14837743 -37.8990865 10.86114684 -40.3203125 9.5703125 C-40.3203125 8.9103125 -40.3203125 8.2503125 -40.3203125 7.5703125 C-38.77923828 6.80847656 -38.77923828 6.80847656 -37.20703125 6.03125 C-36.541875 5.69996094 -35.87671875 5.36867188 -35.19140625 5.02734375 C-33.72519314 4.3007945 -32.25504584 3.5821356 -30.78125 2.87109375 C-27.42403377 1.23070263 -24.40160716 -0.37046622 -21.37109375 -2.578125 C-13.10375504 -8.57922538 -7.7660375 -4.68054112 0 0 Z M7.8671875 41.1953125 C1.1996546 44.78558428 -5.52390461 48.22906169 -12.3203125 51.5703125 C-10.66942539 54.87208671 -7.09353491 55.83425583 -3.8828125 57.3828125 C-2.42311413 58.09752769 -0.96347868 58.8123714 0.49609375 59.52734375 C1.21039551 59.87490723 1.92469727 60.2224707 2.66064453 60.58056641 C6.08423089 62.25882748 9.4701267 64.01148795 12.859375 65.7578125 C14.65184004 66.70617666 14.65184004 66.70617666 16.6796875 66.5703125 C16.6796875 77.1303125 16.6796875 87.6903125 16.6796875 98.5703125 C19.6290625 97.1884375 22.5784375 95.8065625 25.6171875 94.3828125 C26.52718506 93.95846924 27.43718262 93.53412598 28.37475586 93.09692383 C29.12378174 92.7439624 29.87280762 92.39100098 30.64453125 92.02734375 C31.76782837 91.5010437 31.76782837 91.5010437 32.91381836 90.96411133 C36.89993232 88.955397 40.77776845 86.73804531 44.6796875 84.5703125 C44.6796875 74.0103125 44.6796875 63.4503125 44.6796875 52.5703125 C40.56891145 50.43219988 36.45754281 48.29532258 32.34448242 46.16162109 C30.94436261 45.43481404 29.54462188 44.70727625 28.14526367 43.97900391 C26.13819102 42.93461566 24.12978658 41.89283046 22.12109375 40.8515625 C21.49191544 40.52345581 20.86273712 40.19534912 20.2144928 39.8572998 C14.54392365 36.92386518 13.30154359 38.247415 7.8671875 41.1953125 Z M-50.046875 41.37890625 C-51.160625 41.96091797 -52.274375 42.54292969 -53.421875 43.14257812 C-54.58460937 43.75810547 -55.74734375 44.37363281 -56.9453125 45.0078125 C-58.1273319 45.62617177 -59.30962066 46.24401645 -60.4921875 46.86132812 C-65.71691924 49.26370088 -65.71691924 49.26370088 -70.3203125 52.5703125 C-70.4087092 54.9459977 -70.43561555 57.29239924 -70.41796875 59.66796875 C-70.4165538 60.37682724 -70.41513885 61.08568573 -70.41368103 61.81602478 C-70.40806693 64.08832962 -70.39551213 66.36053725 -70.3828125 68.6328125 C-70.37779931 70.16992046 -70.37323609 71.70702995 -70.36914062 73.24414062 C-70.35809292 77.01956892 -70.34081891 80.79492421 -70.3203125 84.5703125 C-66.79927214 86.42693012 -63.27547713 88.27819583 -59.74902344 90.12451172 C-58.54935708 90.75357337 -57.35045841 91.38410127 -56.15234375 92.01611328 C-54.43170672 92.92343595 -52.70808111 93.82508402 -50.984375 94.7265625 C-49.94748535 95.27119141 -48.9105957 95.81582031 -47.84228516 96.37695312 C-45.48401891 97.71288506 -45.48401891 97.71288506 -43.3203125 97.5703125 C-43.3203125 87.3403125 -43.3203125 77.1103125 -43.3203125 66.5703125 C-41.3403125 65.9103125 -39.3603125 65.2503125 -37.3203125 64.5703125 C-33.65028328 62.86470434 -30.0878755 60.95660846 -26.5078125 59.0703125 C-25.54166016 58.57144531 -24.57550781 58.07257813 -23.58007812 57.55859375 C-22.66291016 57.07777344 -21.74574219 56.59695312 -20.80078125 56.1015625 C-19.96442139 55.66392578 -19.12806152 55.22628906 -18.26635742 54.77539062 C-16.1740738 53.71532347 -16.1740738 53.71532347 -15.3203125 51.5703125 C-32.13284235 40.54826645 -32.13284235 40.54826645 -50.046875 41.37890625 Z M-42.3203125 99.5703125 C-42.3203125 109.1403125 -42.3203125 118.7103125 -42.3203125 128.5703125 C-35.26175605 132.29871021 -35.26175605 132.29871021 -28.19140625 136.00390625 C-25.44963486 137.43887647 -22.73925789 138.89789156 -20.04296875 140.41796875 C-19.20636719 140.88074219 -18.36976562 141.34351563 -17.5078125 141.8203125 C-16.82074219 142.21734375 -16.13367188 142.614375 -15.42578125 143.0234375 C-10.74416341 144.23944213 -5.77325986 140.89939706 -1.703125 138.75 C-0.78418457 138.26772949 0.13475586 137.78545898 1.08154297 137.28857422 C2.22768066 136.68029785 3.37381836 136.07202148 4.5546875 135.4453125 C8.2259375 133.5065625 11.8971875 131.5678125 15.6796875 129.5703125 C15.6796875 120.0003125 15.6796875 110.4303125 15.6796875 100.5703125 C9.55170001 102.612975 4.72825602 104.38969697 -0.6328125 107.6328125 C-2.8591518 108.95024455 -5.08889057 110.261471 -7.3203125 111.5703125 C-8.01511719 112.00214844 -8.70992187 112.43398437 -9.42578125 112.87890625 C-12.93287802 114.15881579 -15.89461643 112.7657457 -19.16699219 111.26342773 C-20.68921387 110.4543396 -20.68921387 110.4543396 -22.2421875 109.62890625 C-23.34949219 109.04560547 -24.45679688 108.46230469 -25.59765625 107.86132812 C-26.74363281 107.24966797 -27.88960937 106.63800781 -29.0703125 106.0078125 C-31.35589783 104.79652837 -33.64230977 103.58680221 -35.9296875 102.37890625 C-36.93999023 101.84064209 -37.95029297 101.30237793 -38.99121094 100.74780273 C-41.03408052 99.49511657 -41.03408052 99.49511657 -42.3203125 99.5703125 Z " fill="#D9D9D9" transform="translate(100.3203125,8.4296875)"/>
<path d="M0 0 C5.28 0 10.56 0 16 0 C16.33 9.9 16.66 19.8 17 30 C19.97 27.525 19.97 27.525 23 25 C27.45938183 22.22023468 31.89529705 22.51083217 37 23 C42.86202653 24.66090752 46.9787351 27.71512487 50 33 C51.82953147 39.05223581 52.27129849 44.45228122 52.1953125 50.75 C52.1924826 51.64871826 52.18965271 52.54743652 52.18673706 53.47338867 C52.17563125 56.31573365 52.15054505 59.15775186 52.125 62 C52.11495777 63.9387975 52.10583411 65.87759999 52.09765625 67.81640625 C52.07572345 72.54439482 52.04126084 77.2721422 52 82 C47.05 82 42.1 82 37 82 C36.98541748 80.8855249 36.97083496 79.7710498 36.95581055 78.62280273 C36.8975792 74.4646084 36.82034886 70.30694159 36.73754883 66.14916992 C36.70441587 64.35401 36.67634813 62.55874883 36.65356445 60.76342773 C36.61980336 58.17387988 36.56747875 55.58525029 36.51171875 52.99609375 C36.50532883 52.20101913 36.4989389 51.40594452 36.49235535 50.58677673 C36.35684798 45.38216991 35.53178758 41.5882816 33 37 C28.5208651 35.50695503 24.00784049 35.27923675 19.5625 36.875 C17.84106726 37.93074101 17.84106726 37.93074101 17 40 C16.85468556 43.04879423 16.76563167 46.07827619 16.71875 49.12890625 C16.70034058 50.03374252 16.68193115 50.9385788 16.66296387 51.87083435 C16.58410452 55.75287802 16.51639791 59.63509836 16.44775391 63.51733398 C16.39615927 66.34628234 16.33886514 69.17507517 16.28125 72.00390625 C16.26767456 72.88929581 16.25409912 73.77468536 16.2401123 74.68690491 C16.11282424 80.88717576 16.11282424 80.88717576 15 82 C12.66839945 82.09909302 10.33370058 82.12970504 8 82.125 C6.72125 82.12757813 5.4425 82.13015625 4.125 82.1328125 C1 82 1 82 0 81 C-0.09504251 78.47458998 -0.12557158 75.97662874 -0.11352539 73.45092773 C-0.11367142 72.66074249 -0.11381744 71.87055725 -0.1139679 71.056427 C-0.11326857 68.43212178 -0.10547527 65.80788664 -0.09765625 63.18359375 C-0.09579214 61.36898335 -0.0943682 59.55437244 -0.09336853 57.73976135 C-0.08954279 52.9540977 -0.07971204 48.1684642 -0.06866455 43.3828125 C-0.05845163 38.50325936 -0.05387117 33.62370136 -0.04882812 28.74414062 C-0.03808981 19.16274501 -0.02049257 9.58137972 0 0 Z " fill="#DBDBDB" transform="translate(698,51)"/>
<path d="M0 0 C1.21171875 0.00322266 2.4234375 0.00644531 3.671875 0.00976562 C4.94289063 0.01814453 6.21390625 0.02652344 7.5234375 0.03515625 C8.8021875 0.03966797 10.0809375 0.04417969 11.3984375 0.04882812 C14.56515042 0.06064422 17.73177106 0.0771181 20.8984375 0.09765625 C20.92531029 1.91007677 20.94477465 3.72260858 20.9609375 5.53515625 C20.97253906 6.54449219 20.98414063 7.55382813 20.99609375 8.59375 C20.8984375 11.09765625 20.8984375 11.09765625 19.8984375 12.09765625 C18.33671005 12.18451228 16.77114406 12.20467844 15.20703125 12.1953125 C14.26279297 12.19208984 13.31855469 12.18886719 12.34570312 12.18554688 C11.35248047 12.17716797 10.35925781 12.16878906 9.3359375 12.16015625 C8.33884766 12.15564453 7.34175781 12.15113281 6.31445312 12.14648438 C3.84242263 12.13465648 1.37042278 12.1167204 -1.1015625 12.09765625 C-1.1015625 16.05765625 -1.1015625 20.01765625 -1.1015625 24.09765625 C6.1584375 24.09765625 13.4184375 24.09765625 20.8984375 24.09765625 C20.8984375 28.05765625 20.8984375 32.01765625 20.8984375 36.09765625 C13.6384375 36.09765625 6.3784375 36.09765625 -1.1015625 36.09765625 C-1.1015625 47.31765625 -1.1015625 58.53765625 -1.1015625 70.09765625 C5.1684375 70.09765625 11.4384375 70.09765625 17.8984375 70.09765625 C17.8984375 74.05765625 17.8984375 78.01765625 17.8984375 82.09765625 C1.0684375 82.09765625 -15.7615625 82.09765625 -33.1015625 82.09765625 C-33.1015625 78.13765625 -33.1015625 74.17765625 -33.1015625 70.09765625 C-27.4915625 70.09765625 -21.8815625 70.09765625 -16.1015625 70.09765625 C-16.1015625 58.87765625 -16.1015625 47.65765625 -16.1015625 36.09765625 C-22.0415625 36.09765625 -27.9815625 36.09765625 -34.1015625 36.09765625 C-34.1015625 32.13765625 -34.1015625 28.17765625 -34.1015625 24.09765625 C-28.1615625 24.09765625 -22.2215625 24.09765625 -16.1015625 24.09765625 C-16.1634375 22.26203125 -16.2253125 20.42640625 -16.2890625 18.53515625 C-16.27636064 13.14321564 -15.89096259 9.71459433 -13.1015625 5.09765625 C-8.59109814 0.91722587 -6.06533202 -0.02834267 0 0 Z " fill="#DADADA" transform="translate(282.1015625,50.90234375)"/>
<path d="M0 0 C2.97672584 1.77280561 5.42804007 3.85608015 7 7 C7.4846875 6.4946875 7.969375 5.989375 8.46875 5.46875 C14.63057671 -0.50348205 14.63057671 -0.50348205 19.1875 -0.625 C24.11137565 0.18219273 26.63042935 1.28803668 29.75 5.1875 C32.63811057 11.68574878 32.13776958 19.19830932 32.09765625 26.1875 C32.0962413 27.13061035 32.09482635 28.0737207 32.09336853 29.04541016 C32.0878124 32.03030697 32.07526823 35.01512621 32.0625 38 C32.05747932 40.03515516 32.05291741 42.07031151 32.04882812 44.10546875 C32.03785737 49.07034197 32.02062339 54.03515787 32 59 C27.71 59 23.42 59 19 59 C18.97494385 57.64205322 18.9498877 56.28410645 18.92407227 54.88500977 C18.83018703 49.86618956 18.72992096 44.84751391 18.62768555 39.82885742 C18.58426493 37.65311047 18.54259529 35.47732786 18.50268555 33.30151367 C18.44515498 30.18136832 18.38141177 27.06140367 18.31640625 23.94140625 C18.29969376 22.96224747 18.28298126 21.98308868 18.26576233 20.97425842 C18.2358445 19.62297096 18.2358445 19.62297096 18.20532227 18.24438477 C18.18200584 17.04858543 18.18200584 17.04858543 18.15821838 15.82862854 C18.19599335 13.98148618 18.19599335 13.98148618 17 13 C14.04195427 12.66659529 14.04195427 12.66659529 11 13 C8.94640098 16.08039853 8.74261266 16.79484698 8.68115234 20.2878418 C8.66128265 21.14850754 8.64141296 22.00917328 8.62094116 22.8959198 C8.60361435 24.28355278 8.60361435 24.28355278 8.5859375 25.69921875 C8.56657135 26.64940384 8.5472052 27.59958893 8.5272522 28.5785675 C8.46745088 31.6147869 8.42106871 34.65104419 8.375 37.6875 C8.33682074 39.74545928 8.29776904 41.80340258 8.2578125 43.86132812 C8.16174881 48.9074223 8.07771969 53.95359129 8 59 C4.04 59 0.08 59 -4 59 C-4.02505615 57.67758301 -4.0501123 56.35516602 -4.07592773 54.99267578 C-4.16991165 50.09869246 -4.27015418 45.20485407 -4.37231445 40.31103516 C-4.41569752 38.19062687 -4.45737007 36.07018288 -4.49731445 33.94970703 C-4.55493543 30.90646592 -4.61865325 27.8634051 -4.68359375 24.8203125 C-4.70030624 23.86818878 -4.71701874 22.91606506 -4.73423767 21.93508911 C-4.75418289 21.05432709 -4.77412811 20.17356506 -4.79467773 19.26611328 C-4.81799416 18.10029221 -4.81799416 18.10029221 -4.84178162 16.91091919 C-4.88783251 14.91443065 -4.88783251 14.91443065 -6 13 C-8.9737344 11.90963072 -9.88407501 11.96135834 -13 13 C-13.91187611 15.73562834 -14.14730259 17.46145475 -14.20532227 20.2878418 C-14.22526749 21.14850754 -14.24521271 22.00917328 -14.26576233 22.8959198 C-14.28247482 23.82100845 -14.29918732 24.74609711 -14.31640625 25.69921875 C-14.33718735 26.64940384 -14.35796844 27.59958893 -14.37937927 28.5785675 C-14.44478052 31.61480456 -14.50371604 34.65112831 -14.5625 37.6875 C-14.60569417 39.74545169 -14.64930876 41.80339459 -14.69335938 43.86132812 C-14.80045231 48.90746316 -14.90174646 53.95368543 -15 59 C-18.96 59 -22.92 59 -27 59 C-27 39.86 -27 20.72 -27 1 C-23.04 1 -19.08 1 -15 1 C-14.67 2.65 -14.34 4.3 -14 6 C-13.21625 5.195625 -12.4325 4.39125 -11.625 3.5625 C-7.70458879 -0.26456809 -5.46886184 -0.54688618 0 0 Z " fill="#DBDBDB" transform="translate(529,74)"/>
<path d="M0 0 C1.36125 0.5878125 1.36125 0.5878125 2.75 1.1875 C7.33359381 4.87983946 9.07482424 10.33558788 10 16 C10.08000751 18.27617069 10.10768953 20.55447696 10.09765625 22.83203125 C10.09443359 24.12431641 10.09121094 25.41660156 10.08789062 26.74804688 C10.07953665 28.10286526 10.07107172 29.45768297 10.0625 30.8125 C10.05748 32.18684735 10.05291797 33.56119645 10.04882812 34.93554688 C10.03705668 38.29040924 10.02061283 41.64518221 10 45 C11.98 45 13.96 45 16 45 C16 48.63 16 52.26 16 56 C14.10448978 56.05441656 12.2085208 56.09298035 10.3125 56.125 C9.25675781 56.14820313 8.20101562 56.17140625 7.11328125 56.1953125 C3.92236094 55.99512929 1.8316043 55.45512999 -1 54 C-3.3125 51.375 -3.3125 51.375 -5 49 C-5.721875 49.94875 -6.44375 50.8975 -7.1875 51.875 C-9.43175369 54.82459057 -11.44446208 55.93736756 -15 57 C-18.33984375 57.30078125 -18.33984375 57.30078125 -21.9375 57.3125 C-23.12214844 57.32925781 -24.30679687 57.34601563 -25.52734375 57.36328125 C-30.01350533 56.89397526 -33.29526553 55.5549122 -36.64453125 52.5 C-41.14444423 46.72084755 -41.6121064 42.13382191 -41 35 C-39.33193162 30.25917407 -37.32692819 27.56083505 -33 25 C-23.78600519 21.54845532 -14.66721176 21.66876305 -5 22 C-5.45034123 20.37276701 -5.91055354 18.74826336 -6.375 17.125 C-6.63023437 16.22007813 -6.88546875 15.31515625 -7.1484375 14.3828125 C-7.8604315 11.85430274 -7.8604315 11.85430274 -10 10 C-15.53592431 9.34241783 -21.90810651 8.69454055 -26.75 11.875 C-29.04026496 13.7945358 -29.04026496 13.7945358 -30 16 C-30.66 16 -31.32 16 -32 16 C-32 15.34 -32 14.68 -32 14 C-32.8971875 13.566875 -32.8971875 13.566875 -33.8125 13.125 C-36 12 -36 12 -39 10 C-38.52300119 5.70701074 -36.20196975 3.71471348 -33 1 C-22.55835692 -4.12922818 -10.63487199 -5.22075534 0 0 Z M-26 35 C-26.61593501 40.16248126 -26.61593501 40.16248126 -24.75390625 44.703125 C-21.53820244 47.08088372 -17.90248633 47.10673467 -14 47 C-10.38250482 45.79416827 -8.59404414 44.6930515 -6.125 41.8125 C-4.60256175 38.00640438 -4.79237349 35.08332139 -5 31 C-7.20770805 30.91834504 -9.41630425 30.86051512 -11.625 30.8125 C-12.85476563 30.77769531 -14.08453125 30.74289063 -15.3515625 30.70703125 C-19.42673146 31.03426645 -23.02150997 32.02150997 -26 35 Z " fill="#DBDBDB" transform="translate(352,77)"/>
<path d="M0 0 C7.40328801 8.03785556 6.67717647 17.69585319 6.4375 27.9375 C6.4173987 29.43812713 6.39915436 30.93878034 6.3828125 32.43945312 C6.33911687 36.08518483 6.27029202 39.72992199 6.1875 43.375 C8.4975 43.375 10.8075 43.375 13.1875 43.375 C13.1875 47.005 13.1875 50.635 13.1875 54.375 C-0.2339876 54.97004132 -0.2339876 54.97004132 -5.8125 51.375 C-6.75 48.6875 -6.75 48.6875 -6.8125 46.375 C-7.4725 46.375 -8.1325 46.375 -8.8125 46.375 C-8.91175781 46.97828125 -9.01101563 47.5815625 -9.11328125 48.203125 C-10.2032942 51.58886356 -12.17363835 52.64407241 -15.16796875 54.38671875 C-21.2393662 56.65564571 -28.37501961 56.54254072 -34.4921875 54.46484375 C-36.6875 53.375 -36.6875 53.375 -39.8125 51.375 C-39.8125 50.715 -39.8125 50.055 -39.8125 49.375 C-40.4725 49.375 -41.1325 49.375 -41.8125 49.375 C-44.3945924 43.74603857 -44.47465691 38.4751205 -43.8125 32.375 C-41.52619312 27.45064672 -38.60922079 24.86218856 -33.8125 22.375 C-25.72398136 19.70411955 -17.21804111 20.17326701 -8.8125 20.375 C-9.4725 16.745 -10.1325 13.115 -10.8125 9.375 C-16.0008205 7.64555983 -21.40908542 7.74282711 -26.8125 8.375 C-29.29385154 9.77194409 -30.77512819 11.33762819 -32.8125 13.375 C-35.98406984 13.57322312 -37.70277348 11.73666952 -40.0625 9.8125 C-40.97 9.008125 -41.8775 8.20375 -42.8125 7.375 C-40.1875 2.5 -40.1875 2.5 -36.8125 1.375 C-36.8125 0.715 -36.8125 0.055 -36.8125 -0.625 C-35.56358386 -1.10698463 -34.31331192 -1.58545677 -33.0625 -2.0625 C-32.36640625 -2.32933594 -31.6703125 -2.59617187 -30.953125 -2.87109375 C-20.56020825 -6.53137283 -9.48554211 -5.48053544 0 0 Z M-28.8125 32.375 C-30.23291821 35.21583641 -30.12702272 37.22977278 -29.8125 40.375 C-27.9454009 42.67775556 -26.45602259 44.05323871 -23.8125 45.375 C-18.57980994 45.77751462 -15.27309515 45.17583881 -10.8125 42.375 C-8.60336 39.06129 -8.58768447 38.0303979 -8.6875 34.1875 C-8.70554687 33.28644531 -8.72359375 32.38539062 -8.7421875 31.45703125 C-8.76539063 30.76996094 -8.78859375 30.08289063 -8.8125 29.375 C-11.02020805 29.29334504 -13.22880425 29.23551512 -15.4375 29.1875 C-16.66726563 29.15269531 -17.89703125 29.11789063 -19.1640625 29.08203125 C-23.11103429 29.39897224 -25.46617341 30.29987555 -28.8125 32.375 Z " fill="#DADADA" transform="translate(483.8125,78.625)"/>
<path d="M0 0 C6.01250058 5.13011995 9.35751388 10.30084629 11 18 C11 21.96 11 25.92 11 30 C-2.2 30 -15.4 30 -29 30 C-26.78836565 38.50202994 -26.78836565 38.50202994 -21 43 C-15.58444919 43.92179588 -9.15543915 44.34287645 -4.4375 41.125 C-3.633125 40.42375 -2.82875 39.7225 -2 39 C-0.68 38.34 0.64 37.68 2 37 C4.31 39.31 6.62 41.62 9 44 C6.14782121 49.70435758 2.87683878 52.784114 -2.9765625 55.234375 C-11.63737377 57.42755201 -23.23127027 57.80101797 -31.1796875 53.3125 C-38.34304078 48.14750708 -42.16736276 42.76195795 -44 34 C-45.1703498 22.70672772 -43.9699631 12.68699155 -36.875 3.5625 C-27.4660763 -6.1454361 -11.27896801 -7.16002747 0 0 Z M-25 10 C-28.42128096 14.14155064 -29 15.47498497 -29 21 C-20.75 21 -12.5 21 -4 21 C-5.01797619 13.25334331 -5.01797619 13.25334331 -10 8 C-15.55661581 6.16826109 -20.18522187 6.52888088 -25 10 Z " fill="#DADADA" transform="translate(612,78)"/>
<path d="M0 0 C42.4197861 0 42.4197861 0 51.58203125 8.4609375 C60.81208337 18.41537346 62.51640086 29.49643313 62.26953125 42.6015625 C61.7922691 53.45868859 57.93791666 62.50949319 50 70 C35.29461878 80.10650732 17.2174569 76 0 76 C0 50.92 0 25.84 0 0 Z M9 8 C9 27.8 9 47.6 9 68 C29.14596514 69.20188345 29.14596514 69.20188345 46 61 C49.46250956 55.64714738 51.6684607 50.40975989 52 44 C52.05027344 43.11699219 52.10054687 42.23398438 52.15234375 41.32421875 C52.43483439 32.61220734 51.86034307 23.20485382 46.4375 16 C40.81252788 10.27732365 32.76649778 8.44379987 25 8 C19.72 8 14.44 8 9 8 Z " fill="#DBDBDB" transform="translate(787,58)"/>
<path d="M0 0 C1.38709561 0.89904345 2.73176599 1.86320915 4.0625 2.84375 C2.38848022 6.80052402 -0.06899285 9.68839213 -2.9375 12.84375 C-3.5975 12.84375 -4.2575 12.84375 -4.9375 12.84375 C-4.9375 12.18375 -4.9375 11.52375 -4.9375 10.84375 C-6.59734798 10.16028318 -8.26586805 9.49786685 -9.9375 8.84375 C-10.865625 8.4725 -11.79375 8.10125 -12.75 7.71875 C-18.57043815 6.12098267 -24.05201361 6.66665272 -29.9375 7.84375 C-29.9375 10.15375 -29.9375 12.46375 -29.9375 14.84375 C-25.7681182 16.73818756 -21.60997413 17.49597574 -17.125 18.21875 C-9.41210876 19.58292891 -3.89726114 21.13588342 2 26.53125 C4.59453672 30.69823322 5.35218366 33.96172828 5.0625 38.84375 C3.29803875 44.72528749 0.56987851 48.8442333 -4.83764648 51.92700195 C-10.63706598 54.694534 -15.48227318 55.48497824 -21.875 55.34375 C-23.19213989 55.32562256 -23.19213989 55.32562256 -24.53588867 55.30712891 C-34.05096925 55.01544506 -40.6272199 52.55289313 -47.7578125 46.2109375 C-48.9375 44.84375 -48.9375 44.84375 -48.9375 42.84375 C-47.1875 41.1171875 -47.1875 41.1171875 -44.9375 39.21875 C-44.195 38.58710937 -43.4525 37.95546875 -42.6875 37.3046875 C-42.11 36.82257813 -41.5325 36.34046875 -40.9375 35.84375 C-39.90689453 36.47603516 -39.90689453 36.47603516 -38.85546875 37.12109375 C-37.95441406 37.66894531 -37.05335938 38.21679688 -36.125 38.78125 C-34.78501953 39.59916016 -34.78501953 39.59916016 -33.41796875 40.43359375 C-29.52561435 42.64641255 -26.47821202 43.0276795 -22.0625 43.09375 C-21.03382813 43.11953125 -20.00515625 43.1453125 -18.9453125 43.171875 C-15.5161405 42.79778351 -13.65474787 41.94502212 -10.9375 39.84375 C-10.51969121 37.21680578 -10.51969121 37.21680578 -10.9375 34.84375 C-15.96194042 33.00145518 -20.63478909 31.66086655 -25.9375 30.90625 C-31.44392957 30.08028556 -36.01367059 28.40513601 -40.9375 25.84375 C-40.9375 25.18375 -40.9375 24.52375 -40.9375 23.84375 C-41.5975 23.84375 -42.2575 23.84375 -42.9375 23.84375 C-46.01453618 18.8435662 -46.96695056 14.58342244 -45.9375 8.84375 C-43.63306109 3.25991726 -40.32822804 -0.35307142 -34.9375 -3.15625 C-22.99441184 -7.17122239 -10.81653002 -6.45502598 0 0 Z " fill="#DADADA" transform="translate(680.9375,79.15625)"/>
<path d="M0 0 C5.55711604 3.37012198 9.53104225 8.73630577 11.734375 14.7734375 C14.30887528 26.55299068 13.84169521 38.97676259 7.46484375 49.34765625 C3.94083091 54.20959939 -0.92322043 56.70733783 -6.63671875 58.09765625 C-13.92118381 59.2036745 -20.18488891 58.26962979 -26.2109375 53.9765625 C-27.29059759 53.17743727 -28.36753038 52.37455422 -29.4375 51.5625 C-29.46255615 52.40546631 -29.4876123 53.24843262 -29.51342773 54.11694336 C-29.60838155 57.23491674 -29.70762448 60.35271503 -29.80981445 63.47045898 C-29.85321223 64.82164147 -29.8948837 66.17288053 -29.93481445 67.52416992 C-29.99239952 69.46286701 -30.05664298 71.40136276 -30.12109375 73.33984375 C-30.17608032 75.09155884 -30.17608032 75.09155884 -30.23217773 76.87866211 C-30.4375 79.5625 -30.4375 79.5625 -31.4375 80.5625 C-34.4075 80.5625 -37.3775 80.5625 -40.4375 80.5625 C-40.4375 53.8325 -40.4375 27.1025 -40.4375 -0.4375 C-37.1375 -0.4375 -33.8375 -0.4375 -30.4375 -0.4375 C-30.1075 1.5425 -29.7775 3.5225 -29.4375 5.5625 C-28.550625 4.77875 -27.66375 3.995 -26.75 3.1875 C-19.80811068 -2.94719289 -8.39132283 -3.60333274 0 0 Z M-26.6875 11.9375 C-31.62936648 19.35029972 -31.3197634 27.95126407 -30.4375 36.5625 C-29.01503097 41.97557135 -26.11453137 45.48550568 -21.4375 48.5625 C-18.76094199 49.90077901 -16.61315948 49.76828556 -13.625 49.8125 C-12.58730469 49.83828125 -11.54960938 49.8640625 -10.48046875 49.890625 C-7.00998779 49.51640112 -5.22394495 48.62939504 -2.4375 46.5625 C2.2654348 40.29192026 2.76698698 35.78809359 2.8125 28.25 C2.833125 27.40759766 2.85375 26.56519531 2.875 25.69726562 C2.9118637 19.80368081 2.1948454 15.44848285 -1.9375 10.91796875 C-9.82779181 4.77422591 -19.47936109 4.32890892 -26.6875 11.9375 Z " fill="#DBDBDB" transform="translate(1184.4375,77.4375)"/>
<path d="M0 0 C9.9 0 19.8 0 30 0 C30.33 3.63 30.66 7.26 31 11 C31.53625 10.0925 32.0725 9.185 32.625 8.25 C35.31683386 4.22651687 38.6774408 1.75326244 43.3125 0.25 C47.22090455 -0.11357252 51.07500413 -0.05858203 55 0 C55 4.62 55 9.24 55 14 C52.855 14.103125 50.71 14.20625 48.5 14.3125 C42.71659112 14.733963 38.15412259 15.32382097 33 18 C30.88994683 21.14188755 30.70494659 23.91167337 30.5859375 27.640625 C30.54726563 28.71054688 30.50859375 29.78046875 30.46875 30.8828125 C30.42234375 32.54957031 30.42234375 32.54957031 30.375 34.25 C30.33632813 35.37664062 30.29765625 36.50328125 30.2578125 37.6640625 C30.16363017 40.44244109 30.08072972 43.22119799 30 46 C36.27 46 42.54 46 49 46 C49.495 51.94 49.495 51.94 50 58 C33.5 58 17 58 0 58 C0 54.04 0 50.08 0 46 C4.95 46 9.9 46 15 46 C15 34.78 15 23.56 15 12 C10.05 12 5.1 12 0 12 C0 8.04 0 4.08 0 0 Z " fill="#DBDBDB" transform="translate(377,75)"/>
<path d="M0 0 C6.13644434 4.36631617 8.85448463 9.49162872 10.9375 16.6875 C12.11538462 26.58173077 12.11538462 26.58173077 10.25 30.3125 C-2.95 30.3125 -16.15 30.3125 -29.75 30.3125 C-27.30069495 41.15793315 -27.30069495 41.15793315 -19.95703125 47.41015625 C-15.45725791 49.24988659 -10.50935107 48.8349455 -5.75 48.3125 C-1.6772038 46.31182818 0.80299822 44.11894722 3.25 40.3125 C8 42.1875 8 42.1875 10.25 43.3125 C9.19955084 48.21459609 7.34138153 50.94651771 3.49609375 53.984375 C-3.85020711 58.32827464 -12.53089727 59.25912959 -20.75 57.3125 C-27.78207239 55.2769001 -33.0622449 51.73118725 -36.75 45.3125 C-40.53728431 34.81258073 -41.24936917 22.72599584 -37 12.25 C-30.31194237 -0.74119107 -13.35181257 -6.28320592 0 0 Z M-25.75 10.3125 C-28.67040659 14.84416539 -28.75 16.64742809 -28.75 22.3125 C-18.85 22.3125 -8.95 22.3125 1.25 22.3125 C1.25 14.84412743 0.46546172 12.64279964 -4.5 7.5 C-11.8527306 3.61939218 -19.35799993 5.47531076 -25.75 10.3125 Z " fill="#DBDBDB" transform="translate(901.75,77.6875)"/>
<path d="M0 0 C0.47566406 0.28875 0.95132812 0.5775 1.44140625 0.875 C1.44140625 1.535 1.44140625 2.195 1.44140625 2.875 C2.10140625 2.875 2.76140625 2.875 3.44140625 2.875 C9.49118313 11.86323993 8.44140625 16.99865254 8.44140625 28.875 C-4.75859375 28.875 -17.95859375 28.875 -31.55859375 28.875 C-30.00384444 38.44641664 -30.00384444 38.44641664 -24.55859375 44.875 C-21.12062242 47.09329192 -18.16567851 47.17347254 -14.12109375 47.1875 C-13.00863281 47.20425781 -11.89617188 47.22101563 -10.75 47.23828125 C-7.2182015 46.83625278 -5.38593279 45.99049126 -2.55859375 43.875 C-0.75063272 41.30889334 -0.75063272 41.30889334 0.44140625 38.875 C6.19140625 40.75 6.19140625 40.75 8.44140625 41.875 C6.56640625 46.625 6.56640625 46.625 5.44140625 48.875 C4.78140625 48.875 4.12140625 48.875 3.44140625 48.875 C3.44140625 49.535 3.44140625 50.195 3.44140625 50.875 C-2.06064111 56.05339752 -9.24612363 56.62632939 -16.55859375 56.875 C-23.50793115 56.09289403 -30.76972792 54.27684066 -35.55859375 48.875 C-41.84136311 38.91771279 -43.24045222 27.64292394 -41.02734375 16.10546875 C-38.7189533 8.7412014 -34.85573932 3.40894481 -28.55859375 -1.125 C-19.42245951 -4.85243851 -8.72637177 -4.62835188 0 0 Z M-21.24609375 5.375 C-22.05433594 5.6534375 -22.86257813 5.931875 -23.6953125 6.21875 C-24.31019531 6.4353125 -24.92507813 6.651875 -25.55859375 6.875 C-25.55859375 7.535 -25.55859375 8.195 -25.55859375 8.875 C-26.21859375 8.875 -26.87859375 8.875 -27.55859375 8.875 C-30.72476133 13.05434121 -30.75639323 15.25959634 -31.55859375 20.875 C-21.32859375 20.875 -11.09859375 20.875 -0.55859375 20.875 C-0.95617923 12.35732639 -0.95617923 12.35732639 -5.55859375 6.875 C-11.19054381 4.07037971 -15.21275388 3.276447 -21.24609375 5.375 Z " fill="#DADADA" transform="translate(1024.55859375,79.125)"/>
<path d="M0 0 C5.14065472 3.53927696 7.13684609 8.2950024 8.73046875 14.19140625 C8.73046875 19.14140625 8.73046875 24.09140625 8.73046875 29.19140625 C-4.46953125 29.19140625 -17.66953125 29.19140625 -31.26953125 29.19140625 C-29.71478194 38.76282289 -29.71478194 38.76282289 -24.26953125 45.19140625 C-19.19473915 48.44735694 -13.05532194 47.78149933 -7.26953125 47.19140625 C-3.19079557 45.70404775 -0.59383305 42.80698682 1.73046875 39.19140625 C5.38363546 40.44117381 6.51112711 40.86239378 8.73046875 44.19140625 C4.86027003 50.11053371 1.82883867 54.13947395 -5.34375 55.98046875 C-15.08855377 57.76004788 -22.77601388 56.78834174 -31.70703125 52.56640625 C-37.54197 47.15841424 -40.89117146 39.35776349 -41.60546875 31.4921875 C-41.71046901 20.77166141 -40.89216112 10.75146572 -33.00390625 2.62890625 C-24.05131771 -4.79125722 -10.17146861 -5.47694464 0 0 Z M-26.91796875 8.70703125 C-30.30664905 13.05551117 -30.41249396 15.1921452 -31.26953125 21.19140625 C-21.03953125 21.19140625 -10.80953125 21.19140625 -0.26953125 21.19140625 C-0.26953125 15.49178459 -0.30765854 13.73294441 -3.26953125 9.19140625 C-10.26058026 3.31256958 -19.85682617 2.2147959 -26.91796875 8.70703125 Z " fill="#DADADA" transform="translate(1250.26953125,78.80859375)"/>
<path d="M0 0 C7.06173547 4.23704128 10.87161539 10.34625963 12.90625 18.23046875 C14.70970451 28.88587913 13.87070415 39.38456731 7.5625 48.375 C2.95670581 53.98795803 -2.34148769 57.19343656 -9.625 58 C-18.50656748 58.22081245 -26.36101588 56.47944802 -33.25 50.6171875 C-36.60017838 46.96788605 -38.22822827 42.66219754 -39.625 38 C-39.810625 37.38640625 -39.99625 36.7728125 -40.1875 36.140625 C-42.2615833 25.99243172 -40.76821091 15.35112902 -35.0625 6.6875 C-26.64258865 -3.41229634 -11.7599238 -5.22268519 0 0 Z M-26.875 11.375 C-30.37428286 16.62392428 -30.96473387 21.1438899 -30.9375 27.375 C-30.95361328 28.10460937 -30.96972656 28.83421875 -30.98632812 29.5859375 C-30.99149945 35.37781951 -30.05056614 40.24732189 -26.08984375 44.7421875 C-19.83055218 49.38462882 -15.37866177 49.72056281 -7.625 49 C-2.69038681 46.70892959 -0.27218032 43.70609835 2.375 39 C4.69621422 32.17470786 4.4914823 22.1161366 2.125 15.3125 C-0.00337678 11.2837868 -1.84193547 9.04886149 -5.75 6.75 C-13.69568795 4.67721184 -21.01839311 5.19302606 -26.875 11.375 Z " fill="#DBDBDB" transform="translate(1115.625,78)"/>
<path d="M0 0 C3.3 0 6.6 0 10 0 C10.26103516 0.68288086 10.52207031 1.36576172 10.79101562 2.06933594 C16.4115837 16.7605756 22.10705066 31.41577341 28 46 C31.20714066 38.18685945 34.28487643 30.35216066 37.0625 22.375 C44.2421793 1.7578207 44.2421793 1.7578207 46 0 C47.68608966 -0.07205511 49.37500659 -0.08386068 51.0625 -0.0625 C51.98160156 -0.05347656 52.90070312 -0.04445313 53.84765625 -0.03515625 C54.55792969 -0.02355469 55.26820313 -0.01195313 56 0 C49.31502045 19.53045607 49.31502045 19.53045607 45.4609375 28.44140625 C42.81340257 34.89034828 40.44326033 41.44830837 38.03369141 47.98925781 C37.65647949 49.00729492 37.27926758 50.02533203 36.890625 51.07421875 C36.55063477 51.99807373 36.21064453 52.92192871 35.86035156 53.8737793 C35 56 35 56 34 57 C31.81360547 57.07258946 29.62499611 57.08373783 27.4375 57.0625 C25.64119141 57.04896484 25.64119141 57.04896484 23.80859375 57.03515625 C22.88175781 57.02355469 21.95492187 57.01195312 21 57 C17.59941393 48.71559352 14.39508763 40.4017013 11.47558594 31.93554688 C8.83564655 24.36840543 5.87309699 16.92979253 2.89526367 9.49023438 C2.51990479 8.54599609 2.1445459 7.60175781 1.7578125 6.62890625 C1.4189502 5.78400635 1.08008789 4.93910645 0.73095703 4.06860352 C0 2 0 2 0 0 Z " fill="#DBDBDB" transform="translate(920,77)"/>
<path d="M0 0 C3.3 0 6.6 0 10 0 C10.01030746 0.8872728 10.02061493 1.77454559 10.03123474 2.68870544 C10.12903425 11.03251571 10.23152315 19.37625215 10.33933926 27.71993923 C10.39460736 32.0099621 10.44803343 36.29999174 10.49731445 40.59008789 C10.54490086 44.72685436 10.59724132 48.86353536 10.65294075 53.00020027 C10.67339034 54.58189847 10.69209903 56.16362012 10.70907402 57.74535942 C10.7330607 59.95329178 10.76312256 62.1610612 10.79467773 64.36889648 C10.81022202 65.62798325 10.8257663 66.88707001 10.84178162 68.18431091 C10.68086804 70.90297541 10.68086804 70.90297541 12 72 C13.155 72.165 14.31 72.33 15.5 72.5 C19 73 19 73 20 74 C20.04080783 75.99958364 20.04254356 78.00045254 20 80 C15.80212929 82.58480002 12.97020951 81.82988661 8.34375 80.76171875 C5.29799055 79.77184693 3.81099173 78.6410296 2 76 C-0.03091982 71.87274033 -0.24330321 68.48985352 -0.22705078 63.91479492 C-0.22734283 63.22156128 -0.22763489 62.52832764 -0.22793579 61.81408691 C-0.22654897 59.53608426 -0.21101867 57.25841385 -0.1953125 54.98046875 C-0.19158006 53.3957792 -0.18873418 51.81108734 -0.18673706 50.22639465 C-0.17911877 46.06545587 -0.15948588 41.90465779 -0.1373291 37.74377441 C-0.11683172 33.49391584 -0.10772703 29.24403443 -0.09765625 24.99414062 C-0.0762382 16.66269601 -0.04212416 8.33136553 0 0 Z " fill="#DDDDDD" transform="translate(1047,54)"/>
<path d="M0 0 C0.57234375 0.32226562 1.1446875 0.64453125 1.734375 0.9765625 C0.859375 7.8515625 0.859375 7.8515625 -0.265625 8.9765625 C-3.2444035 8.96742514 -6.21144691 8.84336306 -9.1875 8.71875 C-12.70329748 9.01322035 -14.45257536 9.89153803 -17.265625 11.9765625 C-21.23569305 17.50630015 -21.43732302 22.6026127 -21.58203125 29.2421875 C-21.60281235 30.03558533 -21.62359344 30.82898315 -21.64500427 31.64642334 C-21.71022473 34.17305094 -21.76925644 36.69977971 -21.828125 39.2265625 C-21.8713364 40.94271866 -21.91495153 42.65886472 -21.95898438 44.375 C-22.06587783 48.57541796 -22.16722229 52.77593739 -22.265625 56.9765625 C-25.235625 56.9765625 -28.205625 56.9765625 -31.265625 56.9765625 C-31.265625 38.1665625 -31.265625 19.3565625 -31.265625 -0.0234375 C-28.625625 -0.0234375 -25.985625 -0.0234375 -23.265625 -0.0234375 C-22.935625 2.6165625 -22.605625 5.2565625 -22.265625 7.9765625 C-21.770625 6.8628125 -21.770625 6.8628125 -21.265625 5.7265625 C-16.50143778 -0.82419493 -7.50351941 -3.38952084 0 0 Z " fill="#DADADA" transform="translate(1305.265625,77.0234375)"/>
<path d="M0 0 C0.57234375 0.32226562 1.1446875 0.64453125 1.734375 0.9765625 C0.859375 7.8515625 0.859375 7.8515625 -0.265625 8.9765625 C-3.57811057 9.03706452 -6.87569876 8.99706477 -10.1875 8.9375 C-15.27654082 8.88137087 -19.45875802 9.37427351 -24.265625 10.9765625 C-24.595625 7.6765625 -24.925625 4.3765625 -25.265625 0.9765625 C-26.915625 0.9765625 -28.565625 0.9765625 -30.265625 0.9765625 C-30.265625 19.1265625 -30.265625 37.2765625 -30.265625 55.9765625 C-27.955625 55.9765625 -25.645625 55.9765625 -23.265625 55.9765625 C-23.265625 56.3065625 -23.265625 56.6365625 -23.265625 56.9765625 C-25.905625 56.9765625 -28.545625 56.9765625 -31.265625 56.9765625 C-31.265625 38.1665625 -31.265625 19.3565625 -31.265625 -0.0234375 C-28.625625 -0.0234375 -25.985625 -0.0234375 -23.265625 -0.0234375 C-22.935625 2.6165625 -22.605625 5.2565625 -22.265625 7.9765625 C-21.770625 6.8628125 -21.770625 6.8628125 -21.265625 5.7265625 C-16.50143778 -0.82419493 -7.50351941 -3.38952084 0 0 Z " fill="#E4E4E4" transform="translate(1305.265625,77.0234375)"/>
<path d="M0 0 C4.75 1.875 4.75 1.875 7 3 C5.94955084 7.90209609 4.09138153 10.63401771 0.24609375 13.671875 C-7.10020711 18.01577464 -15.78089727 18.94662959 -24 17 C-31.1283371 14.936534 -35.85076531 11.16381488 -40 5 C-40 4.34 -40 3.68 -40 3 C-39.34 3 -38.68 3 -38 3 C-37.12344005 4.22007668 -36.29872728 5.47760887 -35.5 6.75 C-31.80276869 11.73860875 -28.07315793 13.7976997 -22 15 C-16.6654799 15.40796427 -11.33875427 15.23845553 -6 15 C-6.66 13.68 -7.32 12.36 -8 11 C-10.64 11.33 -13.28 11.66 -16 12 C-16.33 11.34 -16.66 10.68 -17 10 C-16.33613281 9.84144531 -15.67226563 9.68289062 -14.98828125 9.51953125 C-9.32028324 8.02185586 -5.8346708 6.67350504 -2 2 C-1.34 1.34 -0.68 0.68 0 0 Z " fill="#E5E5E5" transform="translate(905,118)"/>
<path d="M0 0 C0.33 0 0.66 0 1 0 C1.33 8.91 1.66 17.82 2 27 C4.475 27.99 4.475 27.99 7 29 C3.25 30.125 3.25 30.125 1 29 C0.67 38.24 0.34 47.48 0 57 C-3.60198358 55.79933881 -6.76395081 54.7446722 -10.12890625 53.16015625 C-10.85400391 52.81919922 -11.57910156 52.47824219 -12.32617188 52.12695312 C-13.06416016 51.77568359 -13.80214844 51.42441406 -14.5625 51.0625 C-15.30435547 50.71509766 -16.04621094 50.36769531 -16.81054688 50.00976562 C-24.96603742 46.15351854 -24.96603742 46.15351854 -28 44 C-28.3125 41.3125 -28.3125 41.3125 -28 39 C-27.67 40.32 -27.34 41.64 -27 43 C-25.02 43.33 -23.04 43.66 -21 44 C-21 44.66 -21 45.32 -21 46 C-20.14148437 46.26554687 -19.28296875 46.53109375 -18.3984375 46.8046875 C-14.97089192 48.01023801 -11.85826202 49.47244386 -8.625 51.125 C-7.56539062 51.66382813 -6.50578125 52.20265625 -5.4140625 52.7578125 C-4.61742188 53.16773438 -3.82078125 53.57765625 -3 54 C-3 53.28344238 -3 52.56688477 -3 51.82861328 C-3 43.88574219 -3 35.94287109 -3 28 C-8.61 25.03 -14.22 22.06 -20 19 C-19.67 18.34 -19.34 17.68 -19 17 C-9.595 21.95 -9.595 21.95 0 27 C0 18.09 0 9.18 0 0 Z " fill="#E9E9E9" transform="translate(58,80)"/>
<path d="M0 0 C0.68384766 0.05220703 1.36769531 0.10441406 2.07226562 0.15820312 C3.73621169 0.28619898 5.3994473 0.42337719 7.0625 0.5625 C7.0625 0.8925 7.0625 1.2225 7.0625 1.5625 C2.6075 2.0575 2.6075 2.0575 -1.9375 2.5625 C-1.6075 4.2125 -1.2775 5.8625 -0.9375 7.5625 C-1.69675781 7.81644531 -2.45601563 8.07039063 -3.23828125 8.33203125 C-4.23214844 8.67621094 -5.22601563 9.02039063 -6.25 9.375 C-7.23613281 9.71144531 -8.22226562 10.04789063 -9.23828125 10.39453125 C-11.80879759 11.50680967 -13.15941977 12.44458191 -14.9375 14.5625 C-14.56625 13.799375 -14.195 13.03625 -13.8125 12.25 C-13.52375 11.363125 -13.235 10.47625 -12.9375 9.5625 C-13.5975 8.5725 -14.2575 7.5825 -14.9375 6.5625 C-14.9375 5.5725 -14.9375 4.5825 -14.9375 3.5625 C-19.93353476 4.81150869 -21.99954746 6.36542494 -24.9375 10.5625 C-25.5975 11.2225 -26.2575 11.8825 -26.9375 12.5625 C-26.71837133 8.72774836 -25.99721606 7.62085887 -23.1875 4.875 C-15.89061928 -0.31701128 -8.79851509 -0.70076669 0 0 Z " fill="#DEDEDE" transform="translate(467.9375,99.4375)"/>
<path d="M0 0 C1.05767578 0.44472656 1.05767578 0.44472656 2.13671875 0.8984375 C5.00322261 2.0012398 7.84492532 2.83841394 10.8125 3.625 C11.78832031 3.88539062 12.76414062 4.14578125 13.76953125 4.4140625 C14.50558594 4.60742188 15.24164062 4.80078125 16 5 C13 7 13 7 10 8 C10 8.66 10 9.32 10 10 C13.96 10 17.92 10 22 10 C21.67 10.66 21.34 11.32 21 12 C13.62309819 14.05687199 6.03217522 12.69727269 -1 10 C-2.84765625 8.390625 -2.84765625 8.390625 -4 7 C-2.576875 7.0928125 -2.576875 7.0928125 -1.125 7.1875 C0.421875 7.0946875 0.421875 7.0946875 2 7 C2.66 6.01 3.32 5.02 4 4 C3.34 4 2.68 4 2 4 C1.34 2.68 0.68 1.36 0 0 Z " fill="#DDDDDD" transform="translate(997,123)"/>
<path d="M0 0 C3.02308827 1.41188933 6.04303358 2.83038351 9.0625 4.25 C9.91005859 4.64574219 10.75761719 5.04148437 11.63085938 5.44921875 C16.55715708 7.76971419 21.31287621 10.22715608 26 13 C25.67 14.32 25.34 15.64 25 17 C24.773125 16.38125 24.54625 15.7625 24.3125 15.125 C22.57580484 12.31320783 21.08040192 12.14876867 18 11 C15.80696603 10.01219523 13.6197248 9.01145993 11.4375 8 C10.32246094 7.484375 9.20742187 6.96875 8.05859375 6.4375 C5.6900976 5.32433706 3.340753 4.1703765 1 3 C1 11.25 1 19.5 1 28 C2.98 28.66 4.96 29.32 7 30 C8.875 31.625 8.875 31.625 10 33 C6.02625742 32.43232249 3.16350646 31.51473344 0 29 C-0.56762695 25.99731445 -0.56762695 25.99731445 -0.48828125 22.36328125 C-0.47216797 21.06455078 -0.45605469 19.76582031 -0.43945312 18.42773438 C-0.39767609 17.05597301 -0.35535135 15.68422823 -0.3125 14.3125 C-0.28741745 12.92907618 -0.26460418 11.54560923 -0.24414062 10.16210938 C-0.18510827 6.77365236 -0.10280082 3.38736615 0 0 Z " fill="#E4E4E4" transform="translate(3,109)"/>
<path d="M0 0 C9.9 0 19.8 0 30 0 C29.34 1.32 28.68 2.64 28 4 C28 3.34 28 2.68 28 2 C19.42 2 10.84 2 2 2 C2 4.97 2 7.94 2 11 C3.32 11.33 4.64 11.66 6 12 C4.02 12 2.04 12 0 12 C0 8.04 0 4.08 0 0 Z " fill="#E6E6E6" transform="translate(377,75)"/>
<path d="M0 0 C4.75 1.875 4.75 1.875 7 3 C6.38204889 6.0210943 5.8418778 8.29705277 3.4140625 10.32421875 C1.5625 11.4375 1.5625 11.4375 -2 13 C-2.99 12.67 -3.98 12.34 -5 12 C-1.62068966 1.62068966 -1.62068966 1.62068966 0 0 Z " fill="#DBDBDB" transform="translate(905,118)"/>
<path d="M0 0 C0.33 0.66 0.66 1.32 1 2 C-3.95 4.475 -3.95 4.475 -9 7 C-9.04898437 8.61390625 -9.09796875 10.2278125 -9.1484375 11.890625 C-9.22347498 14.01043383 -9.29902239 16.13022466 -9.375 18.25 C-9.4059375 19.31347656 -9.436875 20.37695312 -9.46875 21.47265625 C-9.50742187 22.49746094 -9.54609375 23.52226563 -9.5859375 24.578125 C-9.6173584 25.52075195 -9.6487793 26.46337891 -9.68115234 27.43457031 C-10 30 -10 30 -12 34 C-12 25.09 -12 16.18 -12 7 C-12.66 6.67 -13.32 6.34 -14 6 C-12.23002526 5.18563132 -10.45898848 4.3735706 -8.6875 3.5625 C-7.70136719 3.11003906 -6.71523438 2.65757813 -5.69921875 2.19140625 C-3 1 -3 1 0 0 Z " fill="#E7E7E7" transform="translate(40,54)"/>
<path d="M0 0 C7.59 0 15.18 0 23 0 C23 3.63 23 7.26 23 11 C20.84267167 13.15732833 16.05201247 12.18520919 13.0625 12.1875 C12.22525391 12.19974609 11.38800781 12.21199219 10.52539062 12.22460938 C9.32366211 12.22750977 9.32366211 12.22750977 8.09765625 12.23046875 C7.36039307 12.23457764 6.62312988 12.23868652 5.86352539 12.24291992 C4 12 4 12 2 10 C8.27 10 14.54 10 21 10 C20.67 7.03 20.34 4.06 20 1 C13.4 1 6.8 1 0 1 C0 0.67 0 0.34 0 0 Z " fill="#ECECEC" transform="translate(280,51)"/>
<path d="M0 0 C2.125 1.25 2.125 1.25 3.0625 3.25 C3.083125 3.91 3.10375 4.57 3.125 5.25 C2.465 5.91 1.805 6.57 1.125 7.25 C-0.75 6.9375 -0.75 6.9375 -2.875 6.25 C-3.535 6.105625 -4.195 5.96125 -4.875 5.8125 C-7.09646207 5.18771379 -8.91154121 4.46869856 -10.875 3.25 C-11.205 2.26 -11.535 1.27 -11.875 0.25 C-8.08642881 -1.64428559 -3.99579724 -1.04238189 0 0 Z " fill="#D8D8D8" transform="translate(896.875,77.75)"/>
<path d="M0 0 C5.75 1.875 5.75 1.875 8 3 C6.125 7.75 6.125 7.75 5 10 C4.34 10 3.68 10 3 10 C3 10.66 3 11.32 3 12 C0.6875 13.6875 0.6875 13.6875 -2 15 C-2.99 14.67 -3.98 14.34 -5 14 C-4.4225 13.814375 -3.845 13.62875 -3.25 13.4375 C0.14462336 11.26871285 1.20497313 8.59005374 3 5 C3 4.34 3 3.68 3 3 C2.34 2.67 1.68 2.34 1 2 C0.773125 2.598125 0.54625 3.19625 0.3125 3.8125 C-1.33811133 6.56351888 -3.1972081 7.52484637 -6 9 C-4.87952194 5.63856582 -3.50292817 4.42471166 -1 2 C-0.67 1.34 -0.34 0.68 0 0 Z " fill="#DFDFDF" transform="translate(1025,118)"/>
<path d="M0 0 C1.32 0.66 2.64 1.32 4 2 C2.7934375 2.4021875 2.7934375 2.4021875 1.5625 2.8125 C0.716875 3.204375 -0.12875 3.59625 -1 4 C-1.91187611 6.73562834 -2.14730259 8.46145475 -2.20532227 11.2878418 C-2.22526749 12.14850754 -2.24521271 13.00917328 -2.26576233 13.8959198 C-2.28247482 14.82100845 -2.29918732 15.74609711 -2.31640625 16.69921875 C-2.33718735 17.64940384 -2.35796844 18.59958893 -2.37937927 19.5785675 C-2.44478052 22.61480456 -2.50371604 25.65112831 -2.5625 28.6875 C-2.60569417 30.74545169 -2.64930876 32.80339459 -2.69335938 34.86132812 C-2.80045231 39.90746316 -2.90174646 44.95368543 -3 50 C-3.66 50 -4.32 50 -5 50 C-5.02481649 44.43156251 -5.04291507 38.86315759 -5.05493164 33.29467773 C-5.05994403 31.40241942 -5.06675567 29.51016495 -5.07543945 27.61791992 C-5.08764098 24.88980152 -5.09325938 22.16173457 -5.09765625 19.43359375 C-5.10281754 18.59477158 -5.10797882 17.7559494 -5.11329651 16.89170837 C-5.11374139 12.17793897 -4.95298919 7.63867767 -4 3 C-1.9375 1.0625 -1.9375 1.0625 0 0 Z " fill="#E3E3E3" transform="translate(517,83)"/>
<path d="M0 0 C3.5625 0.1875 3.5625 0.1875 5.5625 2.1875 C2.55218256 3.12173645 1.69599732 3.23199911 -1.4375 2.1875 C-1.7675 3.8375 -2.0975 5.4875 -2.4375 7.1875 C-1.1175 7.5175 0.2025 7.8475 1.5625 8.1875 C-11.3075 7.6925 -11.3075 7.6925 -24.4375 7.1875 C-24.4375 6.8575 -24.4375 6.5275 -24.4375 6.1875 C-18.4975 6.1875 -12.5575 6.1875 -6.4375 6.1875 C-5.7775 4.5375 -5.1175 2.8875 -4.4375 1.1875 C-3.4375 0.1875 -3.4375 0.1875 0 0 Z " fill="#E6E6E6" transform="translate(820.4375,58.8125)"/>
<path d="M0 0 C3.65316671 1.24976756 4.78065836 1.67098753 7 5 C5.68 6.32 4.36 7.64 3 9 C3.33 7.68 3.66 6.36 4 5 C1.69 5.33 -0.62 5.66 -3 6 C-3.33 6.99 -3.66 7.98 -4 9 C-8.43028188 10.65049717 -12.29050618 11.22973141 -17 11 C-14 9 -14 9 -10.625 8.1875 C-6.51770221 6.8420059 -4.81252583 5.21431524 -2 2 C-1.34 1.34 -0.68 0.68 0 0 Z " fill="#E1E1E1" transform="translate(1252,118)"/>
<path d="M0 0 C0.66 0.33 1.32 0.66 2 1 C1.01 3.31 0.02 5.62 -1 8 C-0.19304687 7.50886719 0.61390625 7.01773438 1.4453125 6.51171875 C5.81603526 4.65296083 9.1990735 4.65795667 13.875 4.8125 C15.050625 4.83280273 15.050625 4.83280273 16.25 4.85351562 C18.16696782 4.88858211 20.08357751 4.94237928 22 5 C22 5.33 22 5.66 22 6 C21.0821875 6.03738281 20.164375 6.07476562 19.21875 6.11328125 C9.24154836 6.606348 9.24154836 6.606348 0 10 C-2.02908008 12.51189141 -2.02908008 12.51189141 -3 15 C-4.33495946 12.33008107 -3.77924641 10.9616317 -3.1875 8.0625 C-2.93033203 6.74958984 -2.93033203 6.74958984 -2.66796875 5.41015625 C-2 3 -2 3 0 0 Z " fill="#E8E8E8" transform="translate(410,83)"/>
<path d="M0 0 C3.3 0 6.6 0 10 0 C10.86555948 2.09950586 11.71711277 4.2047907 12.5625 6.3125 C13.03816406 7.48425781 13.51382813 8.65601562 14.00390625 9.86328125 C15 13 15 13 14 16 C13.01 15.34 12.02 14.68 11 14 C10.95350094 12.00054061 10.96227087 9.9996441 11 8 C10.46750641 5.60617749 9.74874914 3.33984105 9 1 C7.02 1.33 5.04 1.66 3 2 C3.66 4.97 4.32 7.94 5 11 C3 10 3 10 2.1484375 7.71484375 C1.89320313 6.79832031 1.63796875 5.88179688 1.375 4.9375 C1.11460937 4.01839844 0.85421875 3.09929687 0.5859375 2.15234375 C0.39257812 1.44207031 0.19921875 0.73179688 0 0 Z M9 15 C11 16 11 16 11 16 Z " fill="#E0E0E0" transform="translate(920,77)"/>
<path d="M0 0 C0.33 0 0.66 0 1 0 C1 1.65 1 3.3 1 5 C8.26 5 15.52 5 23 5 C22.34 6.32 21.68 7.64 21 9 C21 8.34 21 7.68 21 7 C19.7625 7.185625 18.525 7.37125 17.25 7.5625 C11.43346789 8.23042713 5.79745731 7.63762221 0 7 C0 4.69 0 2.38 0 0 Z " fill="#E5E5E5" transform="translate(280,70)"/>
<path d="M0 0 C0.72445312 0.28875 1.44890625 0.5775 2.1953125 0.875 C10.9277154 4.25456952 10.9277154 4.25456952 20 3 C20.66 4.32 21.32 5.64 22 7 C14.40626518 7.5197233 7.63738294 7.08349279 1 3 C0.67 2.01 0.34 1.02 0 0 Z " fill="#E2E2E2" transform="translate(638,127)"/>
<path d="M0 0 C0.33 0 0.66 0 1 0 C1.01417969 0.82242188 1.02835938 1.64484375 1.04296875 2.4921875 C1.37186348 10.19010208 2.2117072 16.74732639 7 23 C9.51108188 25.05536702 12.06860786 26.61795408 15 28 C12 29 12 29 9.0625 28 C5.2705986 25.52365623 3.81995002 23.05352505 2 19 C1.63648438 18.25105469 1.27296875 17.50210938 0.8984375 16.73046875 C-0.23822873 13.27599181 -0.19282241 10.31599907 -0.125 6.6875 C-0.10695313 5.43324219 -0.08890625 4.17898437 -0.0703125 2.88671875 C-0.03550781 1.45779297 -0.03550781 1.45779297 0 0 Z " fill="#E6E6E6" transform="translate(1152,99)"/>
<path d="M0 0 C0.53238281 0.43183594 1.06476563 0.86367188 1.61328125 1.30859375 C5.29231118 3.91582773 9.35453944 5.66666747 13.41796875 7.59765625 C16 9 16 9 17 11 C13.17050909 10.30288394 10.16074978 8.5100689 6.75 6.6875 C2.28183987 4.4061959 2.28183987 4.4061959 -2.5234375 4.53125 C-4.62869727 5.62848549 -4.62869727 5.62848549 -6.4140625 7.01171875 C-6.93742187 7.33785156 -7.46078125 7.66398437 -8 8 C-8.99 7.67 -9.98 7.34 -11 7 C-9.54462432 6.16151196 -8.08559627 5.32936066 -6.625 4.5 C-5.81289062 4.0359375 -5.00078125 3.571875 -4.1640625 3.09375 C-2 2 -2 2 0 2 C0 1.34 0 0.68 0 0 Z " fill="#E5E5E5" transform="translate(115,43)"/>
<path d="M0 0 C3.89078066 4.04912639 4.21334333 8.37611912 4.34375 13.7109375 C2.63261766 11.14423898 1.64083813 9.04392847 0.53125 6.2109375 C-0.73355578 3.36281645 -1.48508412 1.86254156 -3.84375 -0.2265625 C-7.70169255 -1.68400746 -11.60698474 -2.53919856 -15.65625 -3.2890625 C-15.65625 -3.6190625 -15.65625 -3.9490625 -15.65625 -4.2890625 C-9.93697698 -6.50297464 -4.54967446 -3.54102022 0 0 Z " fill="#E4E4E4" transform="translate(1247.65625,86.2890625)"/>
<path d="M0 0 C0.66 0.66 1.32 1.32 2 2 C1.51120361 2.25692627 1.02240723 2.51385254 0.51879883 2.77856445 C-1.71741762 3.95506057 -3.95246497 5.13376116 -6.1875 6.3125 C-6.95642578 6.71662109 -7.72535156 7.12074219 -8.51757812 7.53710938 C-9.64389648 8.13168945 -9.64389648 8.13168945 -10.79296875 8.73828125 C-11.52306152 9.12322754 -12.2531543 9.50817383 -13.00537109 9.90478516 C-14.66609933 10.81666115 -16.27332438 11.82514199 -17.86328125 12.85546875 C-18.56839844 13.23316406 -19.27351563 13.61085937 -20 14 C-20.99 13.67 -21.98 13.34 -23 13 C-22.34 13 -21.68 13 -21 13 C-20.67 12.01 -20.34 11.02 -20 10 C-17.8203125 9 -17.8203125 9 -15 8 C-12.9488067 7.01968943 -10.90738188 6.01873778 -8.875 5 C-7.84117187 4.484375 -6.80734375 3.96875 -5.7421875 3.4375 C-2.89712604 2.00723352 -2.89712604 2.00723352 0 0 Z " fill="#E7E7E7" transform="translate(139,153)"/>
<path d="M0 0 C0.66 0.33 1.32 0.66 2 1 C2 1.99 2 2.98 2 4 C-4.6 4 -11.2 4 -18 4 C-18 3.34 -18 2.68 -18 2 C-12.06 2 -6.12 2 0 2 C0 1.34 0 0.68 0 0 Z " fill="#E0E0E0" transform="translate(298,129)"/>
<path d="M0 0 C1.10844919 3.32534757 0.84454356 5.62182575 0 9 C-0.33 8.01 -0.66 7.02 -1 6 C-1.70511719 6.32742187 -2.41023438 6.65484375 -3.13671875 6.9921875 C-6.23867167 8.08400722 -8.54006053 8.20385396 -11.8125 8.125 C-13.27623047 8.09792969 -13.27623047 8.09792969 -14.76953125 8.0703125 C-15.50558594 8.04710938 -16.24164063 8.02390625 -17 8 C-17.33 7.34 -17.66 6.68 -18 6 C-17.00419922 6.03480469 -17.00419922 6.03480469 -15.98828125 6.0703125 C-9.2193627 6.3323488 -9.2193627 6.3323488 -3 4 C-1.19651922 1.98682781 -1.19651922 1.98682781 0 0 Z " fill="#E5E5E5" transform="translate(475,117)"/>
<path d="M0 0 C3.24154261 2.40501549 4.35275282 4.41861537 4.9375 8.3125 C5.28632806 13.01005122 4.18810688 15.87626012 2 20 C1.67 20.66 1.34 21.32 1 22 C0.34 22 -0.32 22 -1 22 C-0.566875 20.9790625 -0.566875 20.9790625 -0.125 19.9375 C1.12597355 16.67106907 2.07447955 13.37153877 3 10 C2.34 9.67 1.68 9.34 1 9 C1.66 9 2.32 9 3 9 C2.01 6.03 1.02 3.06 0 0 Z " fill="#E5E5E5" transform="translate(681,105)"/>
<path d="M0 0 C2.81517812 4.77795171 2.53737587 9.60287716 2 15 C0.5 18.6875 0.5 18.6875 -1 21 C-1.33 21 -1.66 21 -2 21 C-1.86142159 17.87463363 -1.71290431 14.74981783 -1.5625 11.625 C-1.52318359 10.73554687 -1.48386719 9.84609375 -1.44335938 8.9296875 C-1.40146484 8.07890625 -1.35957031 7.228125 -1.31640625 6.3515625 C-1.27974854 5.56604004 -1.24309082 4.78051758 -1.20532227 3.97119141 C-1 2 -1 2 0 0 Z " fill="#DFDFDF" transform="translate(1188,99)"/>
<path d="M0 0 C-0.98742187 0.17015625 -1.97484375 0.3403125 -2.9921875 0.515625 C-4.27351562 0.75796875 -5.55484375 1.0003125 -6.875 1.25 C-8.15117188 1.48203125 -9.42734375 1.7140625 -10.7421875 1.953125 C-14.05909538 2.64611785 -14.05909538 2.64611785 -15.3125 4.96875 C-15.539375 5.6390625 -15.76625 6.309375 -16 7 C-17.29470975 8.37086915 -18.62150897 9.71340837 -20 11 C-19.79071707 7.33754868 -19.07082794 6.07436933 -16.5 3.375 C-11.55902989 -0.38443378 -5.67204093 -3.5033194 0 0 Z " fill="#E6E6E6" transform="translate(657,76)"/>
<path d="M0 0 C2.97 0.495 2.97 0.495 6 1 C6 1.66 6 2.32 6 3 C12.6 3 19.2 3 26 3 C25.67 3.66 25.34 4.32 25 5 C17.62309819 7.05687199 10.03217522 5.69727269 3 3 C1.15234375 1.390625 1.15234375 1.390625 0 0 Z " fill="#E7E7E7" transform="translate(993,130)"/>
<path d="M0 0 C0.99 0.33 1.98 0.66 3 1 C2.46890625 1.43570313 1.9378125 1.87140625 1.390625 2.3203125 C-2.87083897 5.91300657 -6.18134848 9.18480366 -9 14 C-9.66 13.67 -10.32 13.34 -11 13 C-7.98970065 7.63207683 -5.15096701 3.47130385 0 0 Z " fill="#E3E3E3" transform="translate(581,77)"/>
<path d="M0 0 C0.66 0.33 1.32 0.66 2 1 C1.65066406 1.45890625 1.30132813 1.9178125 0.94140625 2.390625 C0.48636719 3.00421875 0.03132813 3.6178125 -0.4375 4.25 C-0.88996094 4.85328125 -1.34242187 5.4565625 -1.80859375 6.078125 C-3.03900997 8.06292756 -3.56112668 9.71987655 -4 12 C-4.66 12 -5.32 12 -6 12 C-5.938125 13.423125 -5.938125 13.423125 -5.875 14.875 C-6 18 -6 18 -8 20 C-7.96614199 11.8910061 -5.83066955 5.83066955 0 0 Z " fill="#E4E4E4" transform="translate(1084,81)"/>
<path d="M0 0 C0.66 0 1.32 0 2 0 C0.125 5.875 0.125 5.875 -1 7 C-1.23527773 9.34987262 -1.41386417 11.70556039 -1.5625 14.0625 C-1.64628906 15.35285156 -1.73007812 16.64320312 -1.81640625 17.97265625 C-1.87699219 18.97167969 -1.93757813 19.97070312 -2 21 C-2.33 21 -2.66 21 -3 21 C-3.08132187 18.43685501 -3.14064175 15.87631582 -3.1875 13.3125 C-3.21263672 12.59126953 -3.23777344 11.87003906 -3.26367188 11.12695312 C-3.32614409 6.56648162 -2.91641976 3.58020538 0 0 Z " fill="#E4E4E4" transform="translate(270,55)"/>
<path d="M0 0 C0.99 0.66 1.98 1.32 3 2 C2 4 2 4 -0.4375 4.9375 C-3.29863959 5.84547289 -3.29863959 5.84547289 -5 9 C-4.01 10.485 -4.01 10.485 -3 12 C-4.9375 11.1875 -4.9375 11.1875 -7 10 C-7.33 9.01 -7.66 8.02 -8 7 C-5.36 4.69 -2.72 2.38 0 0 Z " fill="#E8E8E8" transform="translate(640,115)"/>
<path d="M0 0 C0.6875 1.625 0.6875 1.625 1 4 C-0.25 6.8125 -0.25 6.8125 -2 10 C-3.03996336 12.31776587 -4.01617016 14.65754799 -5 17 C-6.34581972 12.96254085 -5.19157055 11.27844375 -3.625 7.375 C-3.16351562 6.20710938 -2.70203125 5.03921875 -2.2265625 3.8359375 C-1 1 -1 1 0 0 Z " fill="#E2E2E2" transform="translate(964,83)"/>
<path d="M0 0 C2.75383923 1.37691962 3.51483101 3.36720042 5 6 C6.98 5.67 8.96 5.34 11 5 C9.625 7.5 9.625 7.5 8 10 C7.34 10 6.68 10 6 10 C6 9.34 6 8.68 6 8 C5.401875 7.71125 4.80375 7.4225 4.1875 7.125 C2 6 2 6 -1 4 C-0.67 2.68 -0.34 1.36 0 0 Z " fill="#E3E3E3" transform="translate(314,83)"/>
<path d="M0 0 C0.66 0 1.32 0 2 0 C2 3.3 2 6.6 2 10 C-0.31 9.01 -2.62 8.02 -5 7 C-4.67 6.34 -4.34 5.68 -4 5 C-3.01 5.33 -2.02 5.66 -1 6 C-0.67 4.02 -0.34 2.04 0 0 Z " fill="#E4E4E4" transform="translate(28,142)"/>
<path d="M0 0 C0.66 0.33 1.32 0.66 2 1 C1.01 1.66 0.02 2.32 -1 3 C-0.34 3.66 0.32 4.32 1 5 C0.21625 5.4125 -0.5675 5.825 -1.375 6.25 C-4.05891656 8.0392777 -4.88098949 9.04988139 -6 12 C-6.35671933 8.16526716 -6.29771416 6.44657125 -4.125 3.1875 C-2 1 -2 1 0 0 Z " fill="#E6E6E6" transform="translate(318,103)"/>
<path d="M0 0 C2.97 0 5.94 0 9 0 C9 0.33 9 0.66 9 1 C7.02 1.33 5.04 1.66 3 2 C3.66 4.97 4.32 7.94 5 11 C3 10 3 10 2.1484375 7.71484375 C1.89320313 6.79832031 1.63796875 5.88179688 1.375 4.9375 C1.11460937 4.01839844 0.85421875 3.09929687 0.5859375 2.15234375 C0.39257812 1.44207031 0.19921875 0.73179688 0 0 Z " fill="#EAEAEA" transform="translate(920,77)"/>
<path d="M0 0 C5.42096702 1.35524176 10.0778687 3.36634013 15 6 C15 6.33 15 6.66 15 7 C8.94696161 6.6216851 4.81617877 4.70282835 0 1 C0 0.67 0 0.34 0 0 Z " fill="#E0E0E0" transform="translate(69,51)"/>
<path d="M0 0 C3.81684226 1.55500981 6.19195732 4.03595495 9 7 C8.67 7.99 8.34 8.98 8 10 C6 9 6 9 5.125 7.0625 C3.75773089 4.55583997 2.67085649 3.91810692 0 3 C-0.99 3.495 -0.99 3.495 -2 4 C-1.34 2.68 -0.68 1.36 0 0 Z " fill="#E7E7E7" transform="translate(612,115)"/>
<path d="M0 0 C0.70189453 0.05671875 1.40378906 0.1134375 2.12695312 0.171875 C3.85630285 0.31304641 5.58454088 0.46771959 7.3125 0.625 C7.3125 0.955 7.3125 1.285 7.3125 1.625 C1.05942761 2.45788874 -4.45567361 2.66363773 -10.6875 1.625 C-6.92241505 -0.88505664 -4.29288391 -0.4008295 0 0 Z " fill="#E6E6E6" transform="translate(467.6875,99.375)"/>
<path d="M0 0 C0.66 0.99 1.32 1.98 2 3 C-2.77899344 9.70459519 -2.77899344 9.70459519 -7.875 10.9375 C-8.90625 10.958125 -9.9375 10.97875 -11 11 C-9.01371893 9.67581262 -6.99187963 8.40335733 -4.9375 7.1875 C-1.85474609 4.89183219 -1.00875481 3.63151731 0 0 Z " fill="#E7E7E7" transform="translate(346,122)"/>
<path d="M0 0 C3.63 0 7.26 0 11 0 C7.99559979 2.00293347 6.29006055 2.49271626 2.8125 3.125 C1.46091797 3.37636719 1.46091797 3.37636719 0.08203125 3.6328125 C-0.60503906 3.75398438 -1.29210937 3.87515625 -2 4 C-1.34 2.68 -0.68 1.36 0 0 Z " fill="#E3E3E3" transform="translate(328,84)"/>
<path d="M0 0 C0.89203125 0.11085938 1.7840625 0.22171875 2.703125 0.3359375 C3.37859375 0.43132812 4.0540625 0.52671875 4.75 0.625 C4.75 0.955 4.75 1.285 4.75 1.625 C-0.2 2.285 -5.15 2.945 -10.25 3.625 C-8.07478822 -0.72542356 -4.37714824 -0.57594056 0 0 Z " fill="#E4E4E4" transform="translate(464.25,83.375)"/>
<path d="M0 0 C-0.57234375 0.26554687 -1.1446875 0.53109375 -1.734375 0.8046875 C-4.1076012 2.05676891 -6.12213286 3.4936352 -8.25 5.125 C-8.95640625 5.66382812 -9.6628125 6.20265625 -10.390625 6.7578125 C-10.92171875 7.16773437 -11.4528125 7.57765625 -12 8 C-11.39830623 4.59040197 -11.11425606 4.09348223 -8.25 1.75 C-5.04323897 0.02328252 -3.54563138 -0.4171331 0 0 Z " fill="#E6E6E6" transform="translate(728,75)"/>
<path d="M0 0 C3.99455527 0.61454696 6.74466336 2.70646737 10 5 C9.34 6.32 8.68 7.64 8 9 C7.01 9 6.02 9 5 9 C5.33 7.68 5.66 6.36 6 5 C5.01 4.360625 4.02 3.72125 3 3.0625 C2.01 2.381875 1.02 1.70125 0 1 C0 0.67 0 0.34 0 0 Z " fill="#E8E8E8" transform="translate(675,77)"/>
<path d="M0 0 C0.66 0 1.32 0 2 0 C2 2.64 2 5.28 2 8 C1.01 8 0.02 8 -1 8 C-1.04241723 5.66705225 -1.04092937 3.33297433 -1 1 C-0.67 0.67 -0.34 0.34 0 0 Z " fill="#626262" transform="translate(1308,182)"/>
<path d="M0 0 C1.98 0.66 3.96 1.32 6 2 C6 2.33 6 2.66 6 3 C2.04 3 -1.92 3 -6 3 C-6.33 2.34 -6.66 1.68 -7 1 C-5.5459375 1.0309375 -5.5459375 1.0309375 -4.0625 1.0625 C-1.12534105 1.35618499 -1.12534105 1.35618499 0 0 Z " fill="#E3E3E3" transform="translate(362,130)"/>
<path d="M0 0 C0.33 0 0.66 0 1 0 C1.19335938 0.61488281 1.38671875 1.22976562 1.5859375 1.86328125 C1.84632813 2.67152344 2.10671875 3.47976562 2.375 4.3125 C2.63023437 5.11300781 2.88546875 5.91351563 3.1484375 6.73828125 C3.98831811 9.22724528 3.98831811 9.22724528 6 12 C5.34 12.66 4.68 13.32 4 14 C1.28608722 9.22642128 -0.56561146 5.65611463 0 0 Z " fill="#E2E2E2" transform="translate(984,112)"/>
<path d="M0 0 C1.8871875 0.0309375 1.8871875 0.0309375 3.8125 0.0625 C2.6875 1.5625 2.6875 1.5625 0.8125 3.0625 C-2.1875 3.1875 -2.1875 3.1875 -5.1875 3.0625 C-6.1775 3.3925 -7.1675 3.7225 -8.1875 4.0625 C-7.8575 3.0725 -7.5275 2.0825 -7.1875 1.0625 C-4.43671116 0.14557039 -2.82801087 -0.04636083 0 0 Z " fill="#E1E1E1" transform="translate(593.1875,73.9375)"/>
<path d="M0 0 C0 0.66 0 1.32 0 2 C-3.63 2 -7.26 2 -11 2 C-11.33 1.34 -11.66 0.68 -12 0 C-7.6835078 -0.76173392 -4.25566547 -1.16063604 0 0 Z " fill="#E3E3E3" transform="translate(496,131)"/>
<path d="M0 0 C-1 3 -1 3 -4.4375 4.75 C-5.613125 5.1625 -6.78875 5.575 -8 6 C-8.66 5.67 -9.32 5.34 -10 5 C-8.71186658 4.16121545 -7.41936744 3.32913217 -6.125 2.5 C-5.40570312 2.0359375 -4.68640625 1.571875 -3.9453125 1.09375 C-2 0 -2 0 0 0 Z " fill="#E0E0E0" transform="translate(16,41)"/>
<path d="M0 0 C1.8871875 0.0309375 1.8871875 0.0309375 3.8125 0.0625 C3.4825 0.7225 3.1525 1.3825 2.8125 2.0625 C0.74609375 2.4765625 0.74609375 2.4765625 -1.75 2.6875 C-2.57628906 2.76226562 -3.40257812 2.83703125 -4.25390625 2.9140625 C-5.21103516 2.98753906 -5.21103516 2.98753906 -6.1875 3.0625 C-6.5175 2.4025 -6.8475 1.7425 -7.1875 1.0625 C-4.43671116 0.14557039 -2.82801087 -0.04636083 0 0 Z " fill="#E3E3E3" transform="translate(669.1875,130.9375)"/>
<path d="M0 0 C1.53445094 3.06890187 0.54984289 5.70094266 0 9 C0.66 9.33 1.32 9.66 2 10 C1.34 10 0.68 10 0 10 C-0.33 10.66 -0.66 11.32 -1 12 C-1.33 11.67 -1.66 11.34 -2 11 C-1.93621032 9.32987017 -1.79971885 7.66219015 -1.625 6 C-1.53476562 5.0925 -1.44453125 4.185 -1.3515625 3.25 C-1 1 -1 1 0 0 Z " fill="#E3E3E3" transform="translate(570,92)"/>
<path d="M0 0 C3.3 0 6.6 0 10 0 C9.34 1.32 8.68 2.64 8 4 C7.67 3.01 7.34 2.02 7 1 C2.92035719 2.30155006 2.92035719 2.30155006 -1 4 C-0.67 2.68 -0.34 1.36 0 0 Z " fill="#F3F3F3" transform="translate(966,77)"/>
<path d="M0 0 C1.0730756 3.2192268 0.79946725 3.90206442 0 7 C0.33 7.66 0.66 8.32 1 9 C-0.32 9.33 -1.64 9.66 -3 10 C-2.69201674 8.51988629 -2.378482 7.04092675 -2.0625 5.5625 C-1.88847656 4.73878906 -1.71445312 3.91507812 -1.53515625 3.06640625 C-1 1 -1 1 0 0 Z " fill="#E3E3E3" transform="translate(957,101)"/>
<path d="M0 0 C0.99 0 1.98 0 3 0 C4.20272819 2.40545638 4.10071472 3.94996953 4.0625 6.625 C4.05347656 7.44226563 4.04445313 8.25953125 4.03515625 9.1015625 C4.02355469 9.72804688 4.01195312 10.35453125 4 11 C3.67 11 3.34 11 3 11 C2.86722656 10.37351562 2.73445312 9.74703125 2.59765625 9.1015625 C2.42105469 8.28429687 2.24445312 7.46703125 2.0625 6.625 C1.80146484 5.40683594 1.80146484 5.40683594 1.53515625 4.1640625 C1.07669307 1.970537 1.07669307 1.970537 0 0 Z " fill="#E1E1E1" transform="translate(745,84)"/>
<path d="M0 0 C0 0.33 0 0.66 0 1 C-4.29 1.66 -8.58 2.32 -13 3 C-10.27144005 -2.45711989 -5.0547008 -0.84245013 0 0 Z " fill="#E2E2E2" transform="translate(1013,82)"/>
<path d="M0 0 C0 0.33 0 0.66 0 1 C-0.60328125 1.13277344 -1.2065625 1.26554687 -1.828125 1.40234375 C-2.62734375 1.57894531 -3.4265625 1.75554687 -4.25 1.9375 C-5.03890625 2.11152344 -5.8278125 2.28554687 -6.640625 2.46484375 C-8.76878703 2.947556 -10.88532842 3.46163178 -13 4 C-12.67 3.01 -12.34 2.02 -12 1 C-8.32433144 -0.61729417 -3.92760325 -0.06546005 0 0 Z " fill="#E4E4E4" transform="translate(463,75)"/>
<path d="M0 0 C1.31611677 0.95336021 2.62778961 1.91285774 3.9375 2.875 C4.66839844 3.40867187 5.39929687 3.94234375 6.15234375 4.4921875 C8 6 8 6 9 8 C3.5 6.53333333 3.5 6.53333333 1.125 4 C0 2 0 2 0 0 Z " fill="#EAEAEA" transform="translate(1214,124)"/>
<path d="M0 0 C2.02907167 3.3146667 2.12742133 5.4315979 1.625 9.25 C1.51414062 10.14203125 1.40328125 11.0340625 1.2890625 11.953125 C1.19367188 12.62859375 1.09828125 13.3040625 1 14 C0.67 14 0.34 14 0 14 C-0.19456705 12.04235617 -0.38044247 10.08384679 -0.5625 8.125 C-0.66691406 7.03445312 -0.77132813 5.94390625 -0.87890625 4.8203125 C-1 2 -1 2 0 0 Z " fill="#E8E8E8" transform="translate(1188,99)"/>
<path d="M0 0 C0.66 0.33 1.32 0.66 2 1 C1.360625 1.4125 0.72125 1.825 0.0625 2.25 C-2.20990931 4.17810487 -2.60196439 5.11424181 -3 8 C-3.99 7.67 -4.98 7.34 -6 7 C-4.19587357 3.73539027 -3.16605307 2.11070205 0 0 Z " fill="#E5E5E5" transform="translate(447,79)"/>
<path d="M0 0 C4.35535069 1.16142685 6.64619703 2.07699505 9 6 C5.9168649 4.80100302 2.93720508 3.52299523 0 2 C0 1.34 0 0.68 0 0 Z " fill="#E2E2E2" transform="translate(824,67)"/>
<path d="M0 0 C0.99 0.33 1.98 0.66 3 1 C3.33 2.98 3.66 4.96 4 7 C1.525 6.01 1.525 6.01 -1 5 C-0.34 4.67 0.32 4.34 1 4 C0.67 2.68 0.34 1.36 0 0 Z " fill="#E5E5E5" transform="translate(555,77)"/>
<path d="M0 0 C2 1 2 1 2 1 Z " fill="#000000" transform="translate(468,30)"/>
<path d="" fill="#000000" transform="translate(0,0)"/>
<path d="" fill="#000000" transform="translate(0,0)"/>
<path d="" fill="#000000" transform="translate(0,0)"/>
<path d="" fill="#000000" transform="translate(0,0)"/>
<path d="" fill="#000000" transform="translate(0,0)"/>
<path d="" fill="#000000" transform="translate(0,0)"/>
<path d="" fill="#000000" transform="translate(0,0)"/>
<path d="" fill="#000000" transform="translate(0,0)"/>
<path d="" fill="#000000" transform="translate(0,0)"/>
<path d="" fill="#000000" transform="translate(0,0)"/>
<path d="" fill="#000000" transform="translate(0,0)"/>
<path d="" fill="#000000" transform="translate(0,0)"/>
<path d="" fill="#000000" transform="translate(0,0)"/>
<path d="" fill="#000000" transform="translate(0,0)"/>
<path d="" fill="#000000" transform="translate(0,0)"/>
<path d="" fill="#000000" transform="translate(0,0)"/>
<path d="" fill="#000000" transform="translate(0,0)"/>
<path d="" fill="#000000" transform="translate(0,0)"/>
<path d="" fill="#000000" transform="translate(0,0)"/>
<path d="" fill="#000000" transform="translate(0,0)"/>
<path d="" fill="#000000" transform="translate(0,0)"/>
<path d="" fill="#000000" transform="translate(0,0)"/>
<path d="" fill="#000000" transform="translate(0,0)"/>
<path d="" fill="#000000" transform="translate(0,0)"/>
<path d="" fill="#000000" transform="translate(0,0)"/>
<path d="" fill="#000000" transform="translate(0,0)"/>
<path d="" fill="#000000" transform="translate(0,0)"/>
<path d="" fill="#000000" transform="translate(0,0)"/>
<path d="" fill="#000000" transform="translate(0,0)"/>
<path d="" fill="#000000" transform="translate(0,0)"/>
<path d="" fill="#000000" transform="translate(0,0)"/>
<path d="" fill="#000000" transform="translate(0,0)"/>
<path d="" fill="#000000" transform="translate(0,0)"/>
<path d="" fill="#000000" transform="translate(0,0)"/>
<path d="" fill="#000000" transform="translate(0,0)"/>
<path d="" fill="#000000" transform="translate(0,0)"/>
<path d="" fill="#000000" transform="translate(0,0)"/>
<path d="" fill="#000000" transform="translate(0,0)"/>
<path d="" fill="#000000" transform="translate(0,0)"/>
<path d="" fill="#000000" transform="translate(0,0)"/>
<path d="" fill="#000000" transform="translate(0,0)"/>
<path d="" fill="#000000" transform="translate(0,0)"/>
<path d="" fill="#000000" transform="translate(0,0)"/>
<path d="" fill="#000000" transform="translate(0,0)"/>
<path d="" fill="#000000" transform="translate(0,0)"/>
<path d="" fill="#000000" transform="translate(0,0)"/>
<path d="" fill="#000000" transform="translate(0,0)"/>
<path d="" fill="#000000" transform="translate(0,0)"/>
<path d="" fill="#000000" transform="translate(0,0)"/>
<path d="" fill="#000000" transform="translate(0,0)"/>
<path d="" fill="#000000" transform="translate(0,0)"/>
<path d="" fill="#000000" transform="translate(0,0)"/>
<path d="" fill="#000000" transform="translate(0,0)"/>
<path d="" fill="#000000" transform="translate(0,0)"/>
<path d="" fill="#000000" transform="translate(0,0)"/>
<path d="" fill="#000000" transform="translate(0,0)"/>
<path d="" fill="#000000" transform="translate(0,0)"/>
<path d="" fill="#000000" transform="translate(0,0)"/>
<path d="" fill="#000000" transform="translate(0,0)"/>
<path d="" fill="#000000" transform="translate(0,0)"/>
<path d="" fill="#000000" transform="translate(0,0)"/>
<path d="" fill="#000000" transform="translate(0,0)"/>
<path d="" fill="#000000" transform="translate(0,0)"/>
<path d="" fill="#000000" transform="translate(0,0)"/>
<path d="" fill="#000000" transform="translate(0,0)"/>
</svg>
